<?xml version="1.0" encoding="UTF-8"?>
<svg version="1.1" xmlns="http://www.w3.org/2000/svg" width="1200" height="1200">
<path d="M0 0 C396 0 792 0 1200 0 C1200 396 1200 792 1200 1200 C804 1200 408 1200 0 1200 C0 804 0 408 0 0 Z " fill="#FEFEFE" transform="translate(0,0)"/>
<path d="M0 0 C0.75653366 0.31434998 1.51306732 0.62869995 2.29252625 0.95257568 C4.78112505 1.98885916 7.26341102 3.0394757 9.74609375 4.08984375 C11.4920066 4.81916598 13.23843423 5.547257 14.98535156 6.27416992 C17.68757413 7.3988235 20.38942858 8.5242883 23.08969116 9.65364075 C31.4055283 13.13116503 39.75314782 16.52717135 48.1111145 19.90194702 C51.95145394 21.45280772 55.79007599 23.00790835 59.62890625 24.5625 C60.72764824 25.00726433 60.72764824 25.00726433 61.84858704 25.46101379 C68.67243529 28.22369938 75.49138454 30.99831257 82.30859375 33.77734375 C83.39188965 34.21892822 84.47518555 34.6605127 85.59130859 35.11547852 C89.84554714 36.85000758 94.09952811 38.58516787 98.35351562 40.3203125 C112.24920835 45.98750867 126.15073454 51.64008391 140.05859375 57.27734375 C140.84418671 57.5957724 141.62977966 57.91420105 142.43917847 58.24227905 C150.20229005 61.38878644 157.96577683 64.53436607 165.72994995 67.67825317 C190.58537254 77.74326894 215.42071737 87.85735616 240.25288391 97.979599 C252.56240301 102.99727514 264.87298223 108.01234848 277.18359375 113.02734375 C274.25001689 115.96092061 270.55431648 116.99122873 266.74609375 118.46484375 C264.94620271 119.17212985 263.14674809 119.88052722 261.34765625 120.58984375 C260.36829102 120.97527344 259.38892578 121.36070312 258.37988281 121.7578125 C251.24218308 124.5928292 244.14249389 127.52266891 237.03540039 130.43334961 C235.37432251 131.11216187 235.37432251 131.11216187 233.6796875 131.8046875 C232.69154053 132.20937256 231.70339355 132.61405762 230.68530273 133.03100586 C228.8728521 133.75283772 227.03438187 134.41041438 225.18359375 135.02734375 C224.85359375 173.63734375 224.52359375 212.24734375 224.18359375 252.02734375 C227.48359375 252.02734375 230.78359375 252.02734375 234.18359375 252.02734375 C234.18359375 265.88734375 234.18359375 279.74734375 234.18359375 294.02734375 C220.32359375 294.02734375 206.46359375 294.02734375 192.18359375 294.02734375 C192.18359375 280.16734375 192.18359375 266.30734375 192.18359375 252.02734375 C195.81359375 252.02734375 199.44359375 252.02734375 203.18359375 252.02734375 C203.18359375 216.38734375 203.18359375 180.74734375 203.18359375 144.02734375 C194.27359375 147.65734375 185.36359375 151.28734375 176.18359375 155.02734375 C170.12915234 157.48301013 164.07463462 159.93847374 158.01870728 162.39047241 C150.97069995 165.24547293 143.93301672 168.12035802 136.92578125 171.07421875 C135.81356201 171.5427124 134.70134277 172.01120605 133.55541992 172.49389648 C131.48578412 173.36868773 129.41811548 174.24815289 127.3527832 175.13305664 C125.99092896 175.70914673 125.99092896 175.70914673 124.6015625 176.296875 C123.81547607 176.63307861 123.02938965 176.96928223 122.21948242 177.31567383 C120.18359375 178.02734375 120.18359375 178.02734375 117.18359375 178.02734375 C117.73789062 178.95675781 118.2921875 179.88617188 118.86328125 180.84375 C119.59546006 182.09220874 120.32720796 183.34092027 121.05859375 184.58984375 C121.42339844 185.19892578 121.78820312 185.80800781 122.1640625 186.43554688 C127.29891742 195.25816124 128.2650526 204.49429057 128.38891602 214.54492188 C128.39881561 215.24834717 128.40871521 215.95177246 128.41891479 216.67651367 C128.45016321 218.97050772 128.47513993 221.26452237 128.5 223.55859375 C128.52060132 225.1614227 128.54159856 226.7642466 128.56297302 228.36706543 C128.61786585 232.56237676 128.66741811 236.75773443 128.71582031 240.953125 C128.76627653 245.24353096 128.82183601 249.53387059 128.87695312 253.82421875 C128.98413293 262.22520414 129.08566513 270.62624545 129.18359375 279.02734375 C133.0203534 280.72003183 135.87419515 281.30911065 140.18359375 282.02734375 C140.18359375 291.59734375 140.18359375 301.16734375 140.18359375 311.02734375 C136.88359375 311.68734375 133.58359375 312.34734375 130.18359375 313.02734375 C128.31003351 314.90090399 129.04871579 318.09225975 129.04174805 320.58813477 C129.03827362 321.27459076 129.03479919 321.96104675 129.03121948 322.66830444 C129.02384521 324.16663865 129.01850878 325.66498391 129.01492882 327.16333199 C129.00775721 329.54964582 128.99207733 331.93575471 128.97358704 334.32200623 C128.92120956 341.11006537 128.87332972 347.89802331 128.85766602 354.6862793 C128.84745974 358.8374061 128.81780403 362.98803268 128.77634621 367.13895988 C128.76418855 368.70824292 128.75888646 370.27759723 128.76114464 371.84692574 C128.77786371 387.28612065 127.29912979 402.60739278 116.078125 414.203125 C103.70547669 425.85172848 89.58077163 427.48707771 73.18359375 427.02734375 C73.18359375 417.78734375 73.18359375 408.54734375 73.18359375 399.02734375 C77.14359375 398.69734375 81.10359375 398.36734375 85.18359375 398.02734375 C91.53512339 395.92551726 91.53512339 395.92551726 96.18359375 391.52734375 C98.04092787 386.88400846 98.31170591 382.97759244 98.32543945 377.95483398 C98.32891388 377.25015488 98.33238831 376.54547577 98.33596802 375.81944275 C98.34330742 374.29168418 98.34866246 372.76391508 98.35225868 371.23614311 C98.35945499 368.80895868 98.37514765 366.38197283 98.39360046 363.95484924 C98.4459022 357.05448226 98.49396691 350.15422279 98.50952148 343.25366211 C98.5196696 339.02777817 98.54916855 334.80239348 98.59084129 330.57670784 C98.60306338 328.97538106 98.60828881 327.37398347 98.60604286 325.77261162 C98.59508504 315.40407703 99.65892388 306.83671655 104.50166321 297.48094177 C104.72670029 296.67125443 104.95173737 295.86156708 105.18359375 295.02734375 C103.94033157 292.93744636 103.94033157 292.93744636 102.18359375 291.02734375 C98.72879624 282.86978828 98.75481473 274.28577525 98.77290344 265.58953285 C98.77744461 263.21284028 98.7632096 260.83686784 98.74450684 258.46025085 C98.70184386 252.56537359 98.6904907 246.67051725 98.67828369 240.7755127 C98.66671343 235.77262511 98.64305352 230.7700721 98.60359192 225.76732445 C98.59012122 223.43859202 98.59417201 221.11032583 98.59899902 218.78157043 C98.82504793 206.95318559 98.82504793 206.95318559 93.18359375 197.02734375 C85.60287805 194.67470784 79.54492991 193.70651244 72.2578125 197.21875 C65.87146293 200.20651897 59.36434717 202.81181016 52.80859375 205.40234375 C50.17381908 206.44886422 47.53999792 207.4977736 44.90625 208.546875 C44.21657639 208.82137985 43.52690277 209.0958847 42.81632996 209.37870789 C34.7691816 212.58486425 26.73990212 215.83507412 18.71234131 219.08990479 C17.07938163 219.75198755 15.44628613 220.41373544 13.81304932 221.07513428 C11.51046482 222.00764053 9.20828758 222.94114454 6.90625 223.875 C6.22823837 224.14954514 5.55022675 224.42409027 4.85166931 224.70695496 C4.20718338 224.96874039 3.56269745 225.23052582 2.89868164 225.50024414 C2.27744415 225.75073517 1.65620667 226.0012262 1.0161438 226.25930786 C-0.8199971 227.0288487 -2.62255069 227.87694177 -4.42407227 228.72436523 C-10.41242207 231.02446044 -14.30292969 230.1373 -20.08203125 227.66796875 C-20.69299149 227.41131943 -21.30395172 227.1546701 -21.9334259 226.89024353 C-23.27353255 226.32630518 -24.61166432 225.75765628 -25.94802856 225.18490601 C-29.66950479 223.59053906 -33.40582066 222.03157858 -37.140625 220.46875 C-37.95893295 220.12536087 -38.77724091 219.78197174 -39.62034607 219.42817688 C-52.44624638 214.06467897 -65.387853 208.982014 -78.30895996 203.85339355 C-81.53231231 202.57357953 -84.75448631 201.29083519 -87.9765625 200.0078125 C-88.95728226 199.61988022 -89.93800201 199.23194794 -90.94844055 198.83226013 C-92.28699348 198.29883751 -92.28699348 198.29883751 -93.65258789 197.75463867 C-94.43606094 197.4437883 -95.219534 197.13293793 -96.02674866 196.81266785 C-97.81640625 196.02734375 -97.81640625 196.02734375 -98.81640625 195.02734375 C-104.91966297 194.59139684 -110.30602324 195.1992042 -115.81640625 198.02734375 C-119.84344959 202.93530282 -119.941317 207.90386454 -119.95825195 214.06811523 C-119.96172638 214.76958176 -119.96520081 215.47104828 -119.96878052 216.19377136 C-119.97612056 217.71497751 -119.98147526 219.23619425 -119.98507118 220.75741386 C-119.99227175 223.17674646 -120.00796879 225.59588033 -120.02641296 228.01515198 C-120.07868567 234.89345423 -120.1267479 241.77165027 -120.14233398 248.65014648 C-120.15250364 252.86307137 -120.18205809 257.07549839 -120.22365379 261.28822517 C-120.23584857 262.88231678 -120.24110647 264.47647911 -120.23885536 266.07061577 C-120.22814413 276.13968171 -121.34334627 284.45343587 -124.81640625 294.02734375 C-125.9237877 297.67264695 -125.6535947 299.07935045 -123.94140625 302.52734375 C-121.28367299 307.95432356 -120.68956714 312.05570262 -120.65869141 318.14746094 C-120.65361069 318.85695892 -120.64852997 319.56645691 -120.64329529 320.29745483 C-120.6326146 321.8350375 -120.62398544 323.37263549 -120.61717606 324.91024017 C-120.60534761 327.34919736 -120.58588363 329.78798061 -120.5640564 332.22686768 C-120.50258112 339.16030026 -120.44847789 346.0937147 -120.41503906 353.02734375 C-120.3940174 357.27259999 -120.35865389 361.51753786 -120.31428146 365.76261139 C-120.30017992 367.37479133 -120.29141231 368.98702759 -120.28822708 370.59926605 C-120.42794867 382.18051066 -120.42794867 382.18051066 -116.81640625 393.02734375 C-112.3734694 397.06637725 -108.18627898 397.77696474 -102.44140625 398.27734375 C-99.92515625 398.52484375 -97.40890625 398.77234375 -94.81640625 399.02734375 C-94.81640625 408.26734375 -94.81640625 417.50734375 -94.81640625 427.02734375 C-109.83306436 427.44837155 -123.69195795 426.32703683 -135.83203125 416.375 C-137.50390625 414.77734375 -137.50390625 414.77734375 -139.81640625 412.02734375 C-139.81640625 411.36734375 -139.81640625 410.70734375 -139.81640625 410.02734375 C-140.47640625 410.02734375 -141.13640625 410.02734375 -141.81640625 410.02734375 C-142.7916595 408.0983051 -143.74560335 406.15849133 -144.69140625 404.21484375 C-145.49191406 402.59642578 -145.49191406 402.59642578 -146.30859375 400.9453125 C-150.23477563 391.62708495 -150.10884639 381.52978182 -150.1213665 371.5913372 C-150.12507625 369.2247962 -150.14191833 366.85865727 -150.16212463 364.49220276 C-150.2171543 357.77344187 -150.24839646 351.05462875 -150.27270508 344.33569336 C-150.28853813 340.20560346 -150.31868529 336.07581376 -150.35746956 331.94587898 C-150.36912979 330.37618237 -150.37505 328.80643234 -150.37515068 327.23669243 C-150.3753418 325.05387496 -150.39352946 322.87189663 -150.41577148 320.68920898 C-150.42084213 319.4477562 -150.42591278 318.20630341 -150.43113708 316.92723083 C-150.55827591 315.9702681 -150.68541473 315.01330536 -150.81640625 314.02734375 C-154.33815544 311.35652336 -154.33815544 311.35652336 -161.81640625 311.02734375 C-161.81640625 301.45734375 -161.81640625 291.88734375 -161.81640625 282.02734375 C-158.84640625 281.36734375 -155.87640625 280.70734375 -152.81640625 280.02734375 C-152.15640625 279.69734375 -151.49640625 279.36734375 -150.81640625 279.02734375 C-150.80427597 277.71428253 -150.80427597 277.71428253 -150.79190063 276.37469482 C-150.71358557 268.07840741 -150.62618721 259.7822742 -150.52887917 251.48618698 C-150.47917851 247.22226897 -150.43284882 242.95837264 -150.39453125 238.69433594 C-150.35734373 234.57042826 -150.31089887 230.44671457 -150.25834274 226.32297516 C-150.23997479 224.75875542 -150.22480379 223.19449439 -150.21306229 221.63021088 C-150.02984626 198.03978713 -150.02984626 198.03978713 -144.87890625 188.58984375 C-144.37488281 187.64238281 -143.87085938 186.69492187 -143.3515625 185.71875 C-141.87595011 183.13173489 -140.36359652 180.57212535 -138.81640625 178.02734375 C-139.4614209 177.93308105 -140.10643555 177.83881836 -140.77099609 177.74169922 C-144.88153141 176.77749958 -148.64393152 175.20026756 -152.54296875 173.59765625 C-153.39453049 173.25172424 -154.24609222 172.90579224 -155.12345886 172.54937744 C-157.89781952 171.42118535 -160.6696039 170.28680492 -163.44140625 169.15234375 C-165.36791939 168.3676003 -167.29459689 167.58326026 -169.22143555 166.79931641 C-173.92927508 164.8828613 -178.6351852 162.96172417 -183.34039307 161.03881836 C-186.65817993 159.6834713 -189.97740305 158.33168359 -193.296875 156.98046875 C-197.53716469 155.25433029 -201.77663072 153.52619198 -206.015625 151.796875 C-210.99487965 149.76719515 -215.97706812 147.7448746 -220.9609375 145.7265625 C-221.68223846 145.43445389 -222.40353943 145.14234528 -223.146698 144.84138489 C-224.64768193 144.23355428 -226.14866872 143.62573071 -227.6496582 143.01791382 C-251.39182785 133.40324564 -275.10429625 123.71586107 -298.81640625 114.02734375 C-296.17595406 111.38689156 -293.13492219 110.39262286 -289.72265625 109.04296875 C-288.99687881 108.75100113 -288.27110138 108.45903351 -287.52333069 108.15821838 C-285.94907033 107.52551339 -284.37388013 106.89511823 -282.79788208 106.26675415 C-278.56964738 104.58087862 -274.34791007 102.87884555 -270.125 101.1796875 C-268.82803444 100.65872749 -268.82803444 100.65872749 -267.50486755 100.12724304 C-259.81046497 97.03393158 -252.14198236 93.8798984 -244.4793396 90.70889282 C-232.13474017 85.60134552 -219.76023542 80.57857026 -207.34936523 75.63378906 C-192.64231814 69.77257771 -177.97654721 63.80978189 -163.30859375 57.8515625 C-159.76930613 56.41401123 -156.22935945 54.97809451 -152.68902588 53.54312134 C-138.34692322 47.72984426 -124.01930259 41.88273254 -109.70611572 35.99859619 C-95.97258635 30.35298596 -82.22066016 24.76047178 -68.42651367 19.26464844 C-60.10518124 15.94816301 -51.79930225 12.59567461 -43.50390625 9.21484375 C-42.39023682 8.76222168 -41.27656738 8.30959961 -40.12915039 7.84326172 C-35.25888511 5.85974348 -30.39852249 3.86005802 -25.56640625 1.78515625 C-24.39331909 1.28592651 -24.39331909 1.28592651 -23.1965332 0.77661133 C-21.79780799 0.17902658 -20.40266217 -0.42705644 -19.01245117 -1.04418945 C-11.86802993 -4.08713104 -6.9358872 -2.97616976 0 0 Z " fill="#191919" transform="translate(610.81640625,256.97265625)"/>
<path d="M0 0 C0.61287369 0.25158875 1.22574738 0.50317749 1.85719299 0.76239014 C3.86753063 1.58950516 5.87309564 2.4275987 7.87890625 3.265625 C9.30498911 3.85436275 10.73142844 4.4422377 12.15820312 5.02929688 C15.1197171 6.24861999 18.07966846 7.47162749 21.03857422 8.69726562 C27.16901787 11.23335125 33.31776223 13.72409981 39.46658325 16.21520996 C42.79239878 17.56319546 46.11682683 18.91459444 49.44140625 20.265625 C50.77473304 20.80730776 52.10806638 21.34897444 53.44140625 21.890625 C61.44140625 25.140625 61.44140625 25.140625 63.44158936 25.95320129 C64.77431056 26.49461801 66.10703354 27.03603037 67.4397583 27.57743835 C70.78247173 28.93539336 74.12515389 30.29342525 77.46777344 31.65161133 C83.35579688 34.04397258 89.24397691 36.43594093 95.13342285 38.82479858 C113.12987846 46.12453882 131.11095664 53.46130297 149.08056641 60.8269043 C157.80863439 64.40306379 166.54106116 67.96690942 175.29296875 71.484375 C176.79949509 72.0911063 178.30600599 72.69787593 179.8125 73.3046875 C182.58113148 74.41966525 185.35227145 75.52806939 188.125 76.6328125 C189.33542969 77.12007813 190.54585937 77.60734375 191.79296875 78.109375 C193.36812256 78.73875977 193.36812256 78.73875977 194.97509766 79.38085938 C197.44140625 80.515625 197.44140625 80.515625 199.44140625 82.515625 C188.95067425 86.83925189 178.4583935 91.15910696 167.965271 95.47692871 C165.47233794 96.50289507 162.97956224 97.52924293 160.48681641 98.55566406 C143.20654572 105.66996974 125.91735922 112.75393349 108.55395508 119.66333008 C96.46773328 124.48328306 84.42351158 129.40525866 72.37890625 134.328125 C68.14455423 136.05864999 63.91019507 137.78915749 59.67578125 139.51953125 C58.63853409 139.94340118 57.60128693 140.36727112 56.53260803 140.8039856 C45.22346113 145.42402739 33.90974656 150.03311868 22.5793457 154.60083008 C21.13881075 155.18174417 19.698299 155.76271577 18.2578125 156.34375 C17.23600639 156.7558094 17.23600639 156.7558094 16.19355774 157.17619324 C12.10242686 158.830473 8.03061378 160.5247203 3.96875 162.25 C3.03393799 162.64155273 2.09912598 163.03310547 1.13598633 163.43652344 C-0.48851003 164.11873473 -2.10797302 164.8131728 -3.7199707 165.52441406 C-10.83575579 168.48661112 -16.29424568 166.83657291 -23.11526489 164.04101562 C-23.92414154 163.70005859 -24.73301819 163.35910156 -25.56640625 163.0078125 C-26.43304901 162.65025879 -27.29969177 162.29270508 -28.19259644 161.92431641 C-31.02597637 160.75363188 -33.85467906 159.57205347 -36.68359375 158.390625 C-38.65717483 157.57346978 -40.63113789 156.75723654 -42.60546875 155.94189453 C-46.63426964 154.27778188 -50.66175634 152.6105466 -54.68847656 150.94140625 C-63.29363115 147.3795825 -71.9251256 143.88311589 -80.55859375 140.390625 C-82.10744393 139.76323804 -83.65627237 139.13579741 -85.20507812 138.50830078 C-93.61517214 135.10244427 -102.03301932 131.71675941 -110.46191406 128.35766602 C-119.42691072 124.77993623 -128.35984293 121.12343521 -137.296875 117.4765625 C-142.77192978 115.24272239 -148.24970472 113.01568484 -153.72930908 110.79302979 C-159.01396138 108.64935653 -164.29688787 106.50145858 -169.57928467 104.35223389 C-173.79871681 102.63604332 -178.0195633 100.92339608 -182.24169922 99.21386719 C-187.30324584 97.16434529 -192.36266525 95.10964248 -197.42092896 93.05203247 C-199.42400092 92.23827624 -201.42780314 91.42631519 -203.43234253 90.61618042 C-206.2445882 89.4792815 -209.0541919 88.33607743 -211.86328125 87.19140625 C-212.71381577 86.84927094 -213.56435028 86.50713562 -214.44065857 86.15463257 C-215.6086776 85.6765062 -215.6086776 85.6765062 -216.80029297 85.1887207 C-217.48098846 84.91260452 -218.16168396 84.63648834 -218.86300659 84.352005 C-220.55859375 83.515625 -220.55859375 83.515625 -222.55859375 81.515625 C-207.18652559 74.92366733 -191.74776672 68.54584908 -176.20727539 62.36178589 C-175.57039795 62.10833405 -174.93352051 61.8548822 -174.27734375 61.59375 C-173.63853271 61.33957306 -172.99972168 61.08539612 -172.34155273 60.82351685 C-165.35990726 58.04290281 -158.39511992 55.22117053 -151.43359375 52.390625 C-150.78826691 52.12830078 -150.14294006 51.86597656 -149.47805786 51.59570312 C-136.32081752 46.24544426 -123.17778589 40.86041999 -110.03335571 35.47879028 C-93.5268943 28.72136393 -77.00416523 22.0049591 -60.47044373 15.31454468 C-54.69203488 12.97584683 -48.91605465 10.63120026 -43.140625 8.28515625 C-40.57016379 7.24142592 -37.99967141 6.19777241 -35.4291687 5.15414429 C-33.77842981 4.48373537 -32.12781335 3.81302487 -30.47732544 3.14199829 C-28.20006862 2.21621847 -25.92235197 1.29157886 -23.64453125 0.3671875 C-22.63015739 -0.04571785 -22.63015739 -0.04571785 -21.59529114 -0.46696472 C-13.30710871 -3.82726694 -8.32950616 -3.45695548 0 0 Z " fill="#FEFEFE" transform="translate(611.55859375,288.484375)"/>
<path d="M0 0 C9.24 -0.0825 18.48 -0.165 28 -0.25 C30.88234375 -0.28641602 33.7646875 -0.32283203 36.734375 -0.36035156 C57.22463157 -0.51329453 76.02779973 0.7898502 91.9375 15.25 C103.43170614 28.05367266 105.97606457 42.23102161 105.1640625 58.79248047 C104.2280381 71.38702309 98.72162325 82.31832361 89.5546875 90.9296875 C74.92692973 102.78398661 58.50368434 105.36966722 40.13671875 105.1953125 C38.59352966 105.19229126 38.59352966 105.19229126 37.01916504 105.18920898 C33.24189683 105.17888667 29.46469307 105.15096641 25.6875 105.125 C17.210625 105.08375 8.73375 105.0425 0 105 C0 70.35 0 35.7 0 0 Z " fill="#181818" transform="translate(654,758)"/>
<path d="M0 0 C8.25 0 16.5 0 25 0 C25.0093457 2.01279053 25.01869141 4.02558105 25.02832031 6.09936523 C25.06220772 12.7770894 25.11782133 19.45450835 25.18390274 26.13198757 C25.22327885 30.17744418 25.25551526 34.22268634 25.27099609 38.26831055 C25.28622833 42.17840108 25.32078828 46.08790167 25.36830902 49.99772835 C25.38305562 51.48346874 25.39103713 52.9692934 25.39188385 54.45510674 C25.40308028 64.25784654 26.06046557 71.96615045 32.25 79.875 C38.58823082 84.77272381 45.10736163 85.87967486 53 85 C57.9495261 84.05723312 61.16321003 82.78221671 64.875 79.3125 C70.47536486 70.58251949 70.46939966 62.39716806 70.51171875 52.34375 C70.52858691 50.83059247 70.54674 49.31744878 70.56611633 47.80432129 C70.61339093 43.8457471 70.64334532 39.88722901 70.66955566 35.9284668 C70.69947575 31.87928189 70.7459664 27.83028984 70.79101562 23.78125 C70.87679203 15.854246 70.94271661 7.92726116 71 0 C78.92 0 86.84 0 95 0 C95.0907932 9.04998636 95.1639976 18.09966442 95.20724869 27.15000534 C95.22801934 31.35359529 95.25614127 35.55685433 95.30175781 39.76025391 C95.34559542 43.82571866 95.36921597 47.89086751 95.37950897 51.9565506 C95.38683302 53.49852717 95.40113284 55.04048876 95.42292023 56.5823288 C95.62597343 71.56378538 92.66232657 83.91342987 82.375 95.1875 C72.94935219 104.23967874 60.56608917 106.35272007 48 106.25 C47.05382812 106.25773438 46.10765625 106.26546875 45.1328125 106.2734375 C32.80703 106.23929406 21.10459377 102.60306953 12 94 C3.74062301 84.37704662 -0.13750122 71.7756363 -0.11352539 59.26025391 C-0.11367142 58.61564209 -0.11381744 57.97103027 -0.1139679 57.30688477 C-0.11327661 55.19674195 -0.10552133 53.08668971 -0.09765625 50.9765625 C-0.09578928 49.5054021 -0.09436669 48.03424108 -0.09336853 46.56307983 C-0.08956533 42.70634215 -0.07975398 38.84964262 -0.06866455 34.99291992 C-0.05840302 31.05127478 -0.05386078 27.10962342 -0.04882812 23.16796875 C-0.03812958 15.44529316 -0.02055075 7.7226568 0 0 Z " fill="#1B1B1B" transform="translate(531,758)"/>
<path d="M0 0 C1.3775647 0.00737183 1.3775647 0.00737183 2.78295898 0.01489258 C15.07372733 0.22481636 25.64106651 3.13599327 36.8125 8.3125 C36.2378379 13.09892607 34.83004357 16.85038787 32.75 21.1875 C32.20214844 22.33992187 31.65429688 23.49234375 31.08984375 24.6796875 C30.66832031 25.54851563 30.24679687 26.41734375 29.8125 27.3125 C26.17081162 26.34633778 22.88943752 25.34669445 19.4375 23.8125 C9.38154105 19.65141354 -2.02469553 18.3477476 -12.33984375 22.41015625 C-15.05195566 23.73467602 -16.57660075 24.72105337 -18.1875 27.3125 C-18.71913989 31.17470747 -18.42629188 34.59612435 -17.1875 38.3125 C-14.51465947 39.45020614 -14.51465947 39.45020614 -11.1875 40.3125 C-9.31771484 40.88097656 -9.31771484 40.88097656 -7.41015625 41.4609375 C-6.02384024 41.87115518 -4.63710261 42.27995005 -3.25 42.6875 C-2.50999756 42.90664063 -1.76999512 43.12578125 -1.00756836 43.3515625 C2.61626425 44.41532648 6.24122609 45.43887867 9.90625 46.3515625 C32.31652174 51.95413043 32.31652174 51.95413043 38.02734375 61.30078125 C41.84286913 68.72815628 43.17598734 75.71070261 41.1640625 83.9765625 C37.82762052 93.18742369 32.08210813 98.95219713 23.828125 103.98828125 C14.8712182 107.92143074 6.2732802 108.83674642 -3.4375 108.75 C-4.62609619 108.74242676 -5.81469238 108.73485352 -7.03930664 108.72705078 C-20.09940885 108.48260321 -33.2841533 106.07288911 -44.1875 98.3125 C-45.0793588 96.03686699 -45.31072364 94.76035852 -44.65844727 92.38964844 C-44.21069946 91.41560059 -44.21069946 91.41560059 -43.75390625 90.421875 C-43.43486328 89.71289062 -43.11582031 89.00390625 -42.78710938 88.2734375 C-42.44486328 87.54382813 -42.10261719 86.81421875 -41.75 86.0625 C-41.41162109 85.31742188 -41.07324219 84.57234375 -40.72460938 83.8046875 C-39.88923696 81.96922135 -39.03972033 80.14020445 -38.1875 78.3125 C-37.66414063 78.580625 -37.14078125 78.84875 -36.6015625 79.125 C-22.47849991 86.07226704 -7.1304045 91.62943986 8.76953125 87.5546875 C13.0595681 85.80279477 13.0595681 85.80279477 16.0390625 82.390625 C17.2957882 79.01396808 16.78955819 76.73220367 15.8125 73.3125 C11.29822649 69.63420307 6.83390133 68.20140927 1.3125 66.8125 C-0.29429539 66.38420671 -1.90106596 65.95582028 -3.5078125 65.52734375 C-6.35542043 64.7850186 -9.20492307 64.05043648 -12.0546875 63.31640625 C-25.0032265 59.84135291 -34.84395327 55.86217476 -42.0625 44.3125 C-44.78179558 37.11532248 -44.4640695 27.37824664 -41.5625 20.3125 C-40.421875 18.2265625 -40.421875 18.2265625 -39.1875 16.3125 C-38.63835937 15.39597656 -38.63835937 15.39597656 -38.078125 14.4609375 C-32.4892894 6.62966786 -21.73946756 2.51968393 -12.57299805 0.66772461 C-8.38147761 0.04356513 -4.23173336 -0.02699858 0 0 Z " fill="#191919" transform="translate(378.1875,755.6875)"/>
<path d="M0 0 C21.72590208 -2.80535321 21.72590208 -2.80535321 28.05322266 1.34765625 C31.58796798 5.30391581 33.50565182 10.18018821 35.5859375 15.00634766 C38.11343006 20.35719602 41.35638339 25.29616057 44.512146 30.2925415 C45.61532748 32.04711618 46.70317665 33.81021952 47.78564453 35.57763672 C50.54681432 40.54691964 50.54681432 40.54691964 54 45 C54.64324219 43.87207031 55.28648437 42.74414062 55.94921875 41.58203125 C62.60697003 29.96590224 69.53378044 18.54034422 76.640625 7.19384766 C78.08060499 4.95545882 78.08060499 4.95545882 79.32543945 2.25463867 C81 0 81 0 83.54370117 -0.56762695 C84.53345947 -0.54144287 85.52321777 -0.51525879 86.54296875 -0.48828125 C87.61611328 -0.47216797 88.68925781 -0.45605469 89.79492188 -0.43945312 C90.91447266 -0.39755859 92.03402344 -0.35566406 93.1875 -0.3125 C94.31865234 -0.28994141 95.44980469 -0.26738281 96.61523438 -0.24414062 C99.41147976 -0.18514811 102.20508097 -0.1028824 105 0 C103.56338235 3.69910764 101.93689423 6.89223781 99.8125 10.25 C95.70981396 16.80546414 91.72315857 23.42785708 87.75 30.0625 C87.10691895 31.1354834 86.46383789 32.2084668 85.80126953 33.31396484 C83.25946531 37.55581108 80.71922451 41.79859226 78.17919922 46.04150391 C77.04259856 47.93986545 75.90573076 49.83806708 74.76855469 51.73608398 C73.73856161 53.45523086 72.70923127 55.17477504 71.68066406 56.89477539 C71.22272461 57.65910889 70.76478516 58.42344238 70.29296875 59.2109375 C69.69778442 60.20552979 69.69778442 60.20552979 69.09057617 61.22021484 C68.0992866 62.83796747 67.05243726 64.42134412 66 66 C65.75855837 68.96884465 65.62692903 71.851868 65.5859375 74.82421875 C65.56657135 75.68561966 65.5472052 76.54702057 65.5272522 77.43452454 C65.4674797 80.18541568 65.42108052 82.93634873 65.375 85.6875 C65.33681806 87.55275261 65.2977662 89.41798763 65.2578125 91.28320312 C65.16014256 95.85537714 65.0805564 100.42736413 65 105 C56.75 105 48.5 105 40 105 C40.00902344 102.32390625 40.01804687 99.6478125 40.02734375 96.890625 C40.01226851 94.25911884 39.98531911 91.62797832 39.95727539 88.99658203 C39.94424682 87.1870585 39.94329826 85.37740158 39.95532227 83.56787109 C40.02407659 71.72248382 39.16370412 63.84284815 32 54 C30.69133413 51.87103336 29.40021951 49.73119865 28.125 47.58203125 C27.10410056 45.90530512 26.08318071 44.22859099 25.06100464 42.55264282 C23.21594073 39.52657243 21.37564238 36.4976061 19.53515625 33.46875 C19.16093033 32.85296585 18.78670441 32.2371817 18.40113831 31.60273743 C14.39888204 25.01463138 10.41247606 18.41709781 6.4375 11.8125 C5.46393555 10.20048706 5.46393555 10.20048706 4.47070312 8.5559082 C3.88095703 7.57452881 3.29121094 6.59314941 2.68359375 5.58203125 C1.90326782 4.28616089 1.90326782 4.28616089 1.10717773 2.96411133 C0 1 0 1 0 0 Z " fill="#181818" transform="translate(762,758)"/>
<path d="M0 0 C30.36 0 60.72 0 92 0 C92 6.27 92 12.54 92 19 C80.78 19 69.56 19 58 19 C58 47.38 58 75.76 58 105 C50.08 105 42.16 105 34 105 C34 76.62 34 48.24 34 19 C22.78 19 11.56 19 0 19 C0 12.73 0 6.46 0 0 Z " fill="#171717" transform="translate(426,758)"/>
<path d="M0 0 C39.85576923 0 39.85576923 0 50 10 C51.72976179 12.20730339 52.90330742 14.42515655 54 17 C54.44666016 18.00160156 54.44666016 18.00160156 54.90234375 19.0234375 C58.49957117 28.20714252 57.98726841 37.4111389 54.2578125 46.4609375 C50.09783793 54.8584017 44.72557153 59.27353736 36.375 63.25 C24.72802561 66.92799191 11.78478517 65 0 65 C0 43.55 0 22.1 0 0 Z " fill="#FCFCFC" transform="translate(678,778)"/>
<path d="M0 0 C5.59807731 5.858453 8.130239 10.81347194 8.4375 18.8125 C8.18833922 26.78564506 6.26380195 33.2401166 0.4375 38.875 C-6.36827799 44.23597596 -14.39230027 46.95641108 -23 46 C-32.13034977 44.02009576 -38.34409636 40.64311302 -44 33 C-47.83658799 26.40441291 -47.86343865 20.46668855 -47 13 C-44.4565459 4.54442815 -39.35495702 -0.42257646 -31.9375 -4.8125 C-21.20658962 -9.1505276 -8.96999723 -7.30116054 0 0 Z " fill="#191919" transform="translate(531,901)"/>
<path d="M0 0 C4.41375 -0.061875 8.8275 -0.12375 13.375 -0.1875 C15.43113525 -0.22846802 15.43113525 -0.22846802 17.52880859 -0.27026367 C29.30036777 -0.34958225 37.32851589 1.19823049 45.92578125 9.5390625 C50.37224081 14.81452299 51.62905697 20.86407744 51.34375 27.67578125 C50.1488058 35.75523351 46.5148604 42.08648133 40 47 C33.92717263 50.57768743 27.4239803 51.13059038 20.5078125 51.09765625 C19.4264502 51.09515869 18.34508789 51.09266113 17.23095703 51.09008789 C15.1985083 51.07643188 15.1985083 51.07643188 13.125 51.0625 C8.79375 51.041875 4.4625 51.02125 0 51 C0 34.17 0 17.34 0 0 Z " fill="#1C1C1C" transform="translate(559,895)"/>
<path d="M0 0 C4.70439823 0.60301259 8.81331482 1.94970782 13.1640625 3.765625 C14.174048 4.1785379 14.174048 4.1785379 15.20443726 4.59979248 C17.34705915 5.47739901 19.48602193 6.36355487 21.625 7.25 C23.03752952 7.82998974 24.45028827 8.40942153 25.86328125 8.98828125 C33.92174484 12.29435365 41.96333166 15.64133518 50 19 C47.06642314 21.93357686 43.37072273 22.96388498 39.5625 24.4375 C37.76260896 25.1447861 35.96315434 25.85318347 34.1640625 26.5625 C33.18469727 26.94792969 32.20533203 27.33335937 31.19628906 27.73046875 C24.05858933 30.56548545 16.95890014 33.49532516 9.85180664 36.40600586 C8.74442139 36.85854736 7.63703613 37.31108887 6.49609375 37.77734375 C5.50794678 38.18202881 4.5197998 38.58671387 3.50170898 39.00366211 C1.68925835 39.72549397 -0.14921188 40.38307063 -2 41 C-2.33 79.61 -2.66 118.22 -3 158 C-3.33 158 -3.66 158 -4 158 C-4 118.73 -4 79.46 -4 39 C-5.485 38.505 -5.485 38.505 -7 38 C-6.34 38 -5.68 38 -5 38 C-5.33 37.01 -5.66 36.02 -6 35 C-6.99 35.495 -6.99 35.495 -8 36 C-12.82889743 36.40435212 -17.40690481 36.6440172 -21.9375 34.8125 C-26.73962226 30.59245316 -28.55429895 27.55468544 -28.96484375 21.20703125 C-29.03963731 16.51165797 -28.82676275 13.98752218 -25.75 10.3125 C-19.68141332 5.20937029 -15.82380198 4.43566019 -8 5 C-4.875 5.5 -4.875 5.5 -3 6 C-3 5.34 -3 4.68 -3 4 C-1.68 3.34 -0.36 2.68 1 2 C0.67 1.34 0.34 0.68 0 0 Z " fill="#1C1C1C" transform="translate(838,351)"/>
<path d="M0 0 C1.32 0 2.64 0 4 0 C4.28875 0.639375 4.5775 1.27875 4.875 1.9375 C5.82823451 4.15206079 5.82823451 4.15206079 8 5 C8 5.66 8 6.32 8 7 C8.66 7 9.32 7 10 7 C11.515625 8.57421875 11.515625 8.57421875 13.25 10.6875 C15.50075728 13.35349133 17.70049545 15.71010091 20.4375 17.875 C21.283125 18.57625 22.12875 19.2775 23 20 C23 20.66 23 21.32 23 22 C23.66 22 24.32 22 25 22 C25 22.66 25 23.32 25 24 C25.66 24 26.32 24 27 24 C27 24.66 27 25.32 27 26 C27.61875 26.2475 28.2375 26.495 28.875 26.75 C31.35068687 28.20628639 31.95125002 29.37812506 33 32 C33.66 32 34.32 32 35 32 C35 32.66 35 33.32 35 34 C35.61875 34.2475 36.2375 34.495 36.875 34.75 C39.35068687 36.20628639 39.95125002 37.37812506 41 40 C41.66 40 42.32 40 43 40 C43 40.66 43 41.32 43 42 C43.99 42.33 44.98 42.66 46 43 C47.23260825 44.42224029 48.46457366 45.84725793 49.62109375 47.33203125 C50.98875864 49.11433203 50.98875864 49.11433203 53.06176758 50.57397461 C55.82282802 54.02990831 55.50130382 57.25622824 55.390625 61.484375 C55.38496521 62.29996887 55.37930542 63.11556274 55.37347412 63.95587158 C55.35112727 66.55451772 55.30093622 69.15177242 55.25 71.75 C55.22993271 73.51430297 55.21168234 75.2786276 55.1953125 77.04296875 C55.1512683 81.36251328 55.08225422 85.68102093 55 90 C54.36908447 89.99476318 53.73816895 89.98952637 53.08813477 89.98413086 C50.24626653 89.96342174 47.40441412 89.95035934 44.5625 89.9375 C43.56927734 89.92912109 42.57605469 89.92074219 41.55273438 89.91210938 C40.60849609 89.90888672 39.66425781 89.90566406 38.69140625 89.90234375 C37.81685791 89.89710693 36.94230957 89.89187012 36.04125977 89.88647461 C34.00559794 89.77215191 34.00559794 89.77215191 33 91 C40.59 91 48.18 91 56 91 C56 78.79 56 66.58 56 54 C56.33 54 56.66 54 57 54 C57 66.54 57 79.08 57 92 C48.75 92 40.5 92 32 92 C32.00902344 89.32390625 32.01804687 86.6478125 32.02734375 83.890625 C32.01226851 81.25911884 31.98531911 78.62797832 31.95727539 75.99658203 C31.94424682 74.1870585 31.94329826 72.37740158 31.95532227 70.56787109 C32.02415169 58.70954388 31.15173012 50.85707896 24 41 C22.59648729 38.71689485 21.21269883 36.42834774 19.84375 34.125 C19.12535372 32.94170148 18.40529209 31.75941248 17.68359375 30.578125 C17.32378418 29.98837891 16.96397461 29.39863281 16.59326172 28.79101562 C16.05209717 27.90446289 16.05209717 27.90446289 15.5 27 C0 1.60741402 0 1.60741402 0 0 Z " fill="#1E1E1E" transform="translate(770,771)"/>
<path d="M0 0 C10 0 10 0 13.72265625 3.33203125 C14.86726449 4.80164965 15.97965231 6.29679978 17.0625 7.8125 C18.25383901 9.37244719 19.44524537 10.93234294 20.63671875 12.4921875 C21.20567871 13.26014648 21.77463867 14.02810547 22.36083984 14.81933594 C24.59286122 17.78871558 26.97480362 20.60262239 29.375 23.4375 C33 27.75454545 33 27.75454545 33 30 C33.66 30 34.32 30 35 30 C35 20.1 35 10.2 35 0 C38.63 0 42.26 0 46 0 C46 16.83 46 33.66 46 51 C36 51 36 51 33.58984375 49.19921875 C32.77193359 47.95591797 32.77193359 47.95591797 31.9375 46.6875 C31.29941406 45.77742187 30.66132812 44.86734375 30.00390625 43.9296875 C29.34261719 42.96289062 28.68132813 41.99609375 28 41 C26.47702342 39.08911998 24.9352175 37.19309605 23.375 35.3125 C22.63121094 34.40242187 21.88742187 33.49234375 21.12109375 32.5546875 C19.26139595 30.31483048 17.36268825 28.12088997 15.4375 25.9375 C13 23 13 23 13 21 C12.34 21 11.68 21 11 21 C11 30.9 11 40.8 11 51 C7.37 51 3.74 51 0 51 C0 34.17 0 17.34 0 0 Z " fill="#161616" transform="translate(664,895)"/>
<path d="M0 0 C3.25 2.125 3.25 2.125 5 4 C5 4.66 5 5.32 5 6 C3.25 7.5078125 3.25 7.5078125 1 9.125 C0.2575 9.66382813 -0.485 10.20265625 -1.25 10.7578125 C-1.8275 11.16773438 -2.405 11.57765625 -3 12 C-3.928125 11.360625 -4.85625 10.72125 -5.8125 10.0625 C-10.50175089 7.02827883 -14.50175266 6.42617912 -20 7 C-25.34740414 8.95385921 -28.45618143 11.91236287 -31 17 C-31.55769904 22.96308973 -31.50156448 27.92876868 -28 33 C-23.45308367 37.2058976 -20.30460961 38.10860937 -14.1328125 38.1328125 C-11.50104728 38.01703027 -11.50104728 38.01703027 -7 37 C-7 32.05 -7 27.1 -7 22 C-3.37 22 0.26 22 4 22 C4 28.93 4 35.86 4 43 C-5.72264532 47.86132266 -14.29907312 51.11455847 -25.05859375 48.16015625 C-32.95658881 45.23168617 -38.22444106 41.4412936 -42.0859375 33.87109375 C-44.9254793 26.58988335 -45.30762711 18.58726553 -42.5 11.25 C-38.70293924 3.82847215 -32.30501249 -0.61344073 -24.5625 -3.33984375 C-15.85173796 -5.58392726 -8.11763648 -3.51485291 0 0 Z " fill="#181818" transform="translate(774,898)"/>
<path d="M0 0 C0.598125 0.5775 1.19625 1.155 1.8125 1.75 C0.36996343 5.11591866 -1.52014727 7.26047079 -4.1875 9.75 C-4.703125 9.481875 -5.21875 9.21375 -5.75 8.9375 C-6.554375 8.545625 -7.35875 8.15375 -8.1875 7.75 C-9.239375 7.193125 -10.29125 6.63625 -11.375 6.0625 C-15.73851984 4.21386901 -19.65678719 4.63435455 -24.1875 5.75 C-27.89496386 7.44253785 -30.03056876 9.29891001 -32.1875 12.75 C-33.94076103 18.00978309 -33.88482734 22.95687254 -31.875 28.125 C-29.16422905 32.34175481 -27.06959609 34.30756252 -22.1875 35.75 C-16.80597808 36.3592289 -13.61700519 35.28502545 -9.08203125 32.625 C-7.1875 31.75 -7.1875 31.75 -3.1875 31.75 C-0.4375 34.25 -0.4375 34.25 1.8125 36.75 C0.3563453 40.58672222 -1.40108953 41.71544196 -5.0625 43.4375 C-6.35800781 44.06205078 -6.35800781 44.06205078 -7.6796875 44.69921875 C-15.32727453 47.90358154 -22.63864018 47.64264144 -30.375 44.75 C-37.43537888 41.52836182 -41.99282541 36.9870478 -45.125 29.875 C-47.54825984 22.10542314 -46.57296829 14.77283951 -43.58203125 7.30078125 C-40.00440694 0.75683539 -34.08551459 -2.90727806 -27.1875 -5.25 C-17.47629989 -7.98905644 -8.15465318 -5.75622577 0 0 Z " fill="#1A1A1A" transform="translate(467.1875,900.25)"/>
<path d="M0 0 C4.12942453 2.66480105 7.42451436 5.27354309 9 10 C9.50442239 15.2674928 9.6716659 19.63179168 7.3125 24.4375 C3.17831213 29.0186271 -0.02107619 31.77517556 -6.3125 32.25 C-10.95466337 31.93527706 -14.12193562 30.89831305 -17.44921875 27.53515625 C-21.793168 22.44439624 -22.36381431 19.37651227 -22.26953125 12.828125 C-21.84759835 8.40088699 -20.8367653 6.47503749 -18 3 C-12.55519051 -1.32824718 -6.58308765 -2.17356291 0 0 Z " fill="#F9F9F9" transform="translate(518,905)"/>
<path d="M0 0 C9.24 0 18.48 0 28 0 C28 9.24 28 18.48 28 28 C18.76 28 9.52 28 0 28 C0 18.76 0 9.52 0 0 Z " fill="#191919" transform="translate(620,656)"/>
<path d="M0 0 C9.24 0 18.48 0 28 0 C28 9.24 28 18.48 28 28 C18.76 28 9.52 28 0 28 C0 18.76 0 9.52 0 0 Z " fill="#1A1A1A" transform="translate(552,656)"/>
<path d="M0 0 C17.34482759 0 17.34482759 0 22 3 C26.26479251 7.26479251 26.77499908 10.5699901 27.3125 16.375 C26.90495302 21.10254502 25.75180464 23.13259889 23 27 C20.375 28.875 20.375 28.875 18 30 C17.34 30.33 16.68 30.66 16 31 C13.28024285 31.07187519 10.59325368 31.0927862 7.875 31.0625 C5.27625 31.041875 2.6775 31.02125 0 31 C0 20.77 0 10.54 0 0 Z " fill="#FBFBFB" transform="translate(571,905)"/>
<path d="M0 0 C3.96 0 7.92 0 12 0 C12 16.83 12 33.66 12 51 C8.04 51 4.08 51 0 51 C0 34.17 0 17.34 0 0 Z " fill="#222222" transform="translate(629,895)"/>
<path d="M0 0 C9.24 0 18.48 0 28 0 C27.67 1.32 27.34 2.64 27 4 C26.01 4.495 26.01 4.495 25 5 C25 5.99 25 6.98 25 8 C20.38 8 15.76 8 11 8 C11 18.23 11 28.46 11 39 C14.63 39 18.26 39 22 39 C22 39.33 22 39.66 22 40 C18.37 40 14.74 40 11 40 C11 40.99 11 41.98 11 43 C10.34 43 9.68 43 9 43 C9 44.32 9 45.64 9 47 C6.36 47 3.72 47 1 47 C0.67 31.49 0.34 15.98 0 0 Z " fill="#1E1E1E" transform="translate(560,897)"/>
<path d="M0 0 C5.43829061 2.671441 5.43829061 2.671441 6.81958008 5.93847656 C7 8 7 8 5.9519043 9.64746094 C5.41476807 10.17114258 4.87763184 10.69482422 4.32421875 11.234375 C3.74349609 11.80800781 3.16277344 12.38164062 2.56445312 12.97265625 C1.94505859 13.55917969 1.32566406 14.14570313 0.6875 14.75 C0.07970703 15.35199219 -0.52808594 15.95398438 -1.15429688 16.57421875 C-5.70552544 21 -5.70552544 21 -8 21 C-8 21.66 -8 22.32 -8 23 C-9.32 22.34 -10.64 21.68 -12 21 C-11.40716913 17.39428893 -9.97258223 15.45570562 -7.5625 12.75 C-6.94503906 12.04359375 -6.32757812 11.3371875 -5.69140625 10.609375 C-4 9 -4 9 -2 9 C-2 8.01 -2 7.02 -2 6 C-7.74459303 6.19839844 -7.74459303 6.19839844 -12.5 9.0625 C-14.54573521 13.06873145 -14.36107456 15.52267542 -14 20 C-13.67 20.99 -13.34 21.98 -13 23 C-8.9409268 24.3530244 -5.24349366 24.52947751 -1 24 C1.66666667 22.66666667 1.66666667 22.66666667 3 20 C3.59879858 17.29508229 3.81452473 14.78212899 4 12 C4.99 11.67 5.98 11.34 7 11 C7 10.34 7 9.68 7 9 C7.66 9 8.32 9 9 9 C10.857304 12.714608 10.44282906 16.94593118 10 21 C7.66907123 25.84115976 4.85901474 28.70301121 0 31 C-4.90334228 31.64176097 -9.32284352 31.67799943 -13.9375 29.8125 C-18.73962226 25.59245316 -20.55429895 22.55468544 -20.96484375 16.20703125 C-21.03963731 11.51165797 -20.82676275 8.98752218 -17.75 5.3125 C-11.88640125 0.38174651 -7.6800095 -1.11642311 0 0 Z " fill="#3D3D3D" transform="translate(830,356)"/>
<path d="M0 0 C2.4020723 2.93739127 3.83247271 5.68791693 5.125 9.25 C5.45757813 10.14203125 5.79015625 11.0340625 6.1328125 11.953125 C7.87606708 18.07807352 8.12830207 24.27171278 8.20532227 30.609375 C8.21522186 31.32255386 8.22512146 32.03573273 8.23532104 32.77052307 C8.26657656 35.09698315 8.29154909 37.42346355 8.31640625 39.75 C8.33700695 41.37524913 8.35800417 43.00049329 8.37937927 44.62573242 C8.43427847 48.88022804 8.483828 53.13476939 8.53222656 57.38934326 C8.58267805 61.74007179 8.63824003 66.0907348 8.69335938 70.44140625 C8.80054701 78.96088193 8.90207756 87.48041281 9 96 C8.34 96 7.68 96 7 96 C6.00329188 93.00987563 5.90714757 91.17295476 5.96923828 88.06054688 C5.98479767 87.05519897 6.00035706 86.04985107 6.01638794 85.01403809 C6.03418304 83.92659302 6.05197815 82.83914795 6.0703125 81.71875 C6.08122067 79.40886671 6.0889292 77.09896651 6.09375 74.7890625 C6.10158278 71.15171317 6.12460734 67.51841508 6.20214844 63.88183594 C7.21849634 48.57348448 7.21849634 48.57348448 0.98629761 35.3560791 C-1.21643831 33.39289023 -3.59127643 31.69957388 -6 30 C-6 29.34 -6 28.68 -6 28 C-7.60407328 27.97291433 -9.2082785 27.95356517 -10.8125 27.9375 C-11.70582031 27.92589844 -12.59914063 27.91429687 -13.51953125 27.90234375 C-16.13413791 27.88990033 -16.13413791 27.88990033 -19 29 C-19.33 29.66 -19.66 30.32 -20 31 C-20 28.36 -20 25.72 -20 23 C-20.66 22.67 -21.32 22.34 -22 22 C-16.31012559 20.53164531 -10.52012115 20.12567225 -4.9375 22.0625 C-0.95923538 24.68646177 2.50886122 27.76582321 6 31 C4.59718164 26.53648705 2.35914958 24.1911921 -1 21 C-3.35616475 17.46575288 -3.2981228 15.81355898 -3.3125 11.625 C-3.32925781 10.50351562 -3.34601562 9.38203125 -3.36328125 8.2265625 C-2.96941825 4.72838141 -2.01813441 2.84349281 0 0 Z " fill="#333333" transform="translate(731,441)"/>
<path d="M0 0 C4.41375 -0.061875 8.8275 -0.12375 13.375 -0.1875 C15.43113525 -0.22846802 15.43113525 -0.22846802 17.52880859 -0.27026367 C26.58878703 -0.3313112 35.67638412 -0.01968897 42.625 6.5 C43.60339844 7.38171875 43.60339844 7.38171875 44.6015625 8.28125 C46 10 46 10 46 13 C44.17806158 14.9249647 42.10764717 16.37535531 40 18 C39.34 16.35 38.68 14.7 38 13 C38.66 15.97 39.32 18.94 40 22 C38 21 38 21 36.625 18.125 C34.49820803 14.03501544 32.6247595 12.56677657 28.3125 11.0625 C26 10 26 10 25 8.0625 C25 7.381875 25 6.70125 25 6 C25.99 5.01 26.98 4.02 28 3 C19.09 2.67 10.18 2.34 1 2 C1.33 3.98 1.66 5.96 2 8 C2.07812853 9.48003055 2.11812814 10.96274011 2.11352539 12.44482422 C2.11344986 13.26522186 2.11337433 14.08561951 2.11329651 14.93087769 C2.10813522 15.79673492 2.10297394 16.66259216 2.09765625 17.5546875 C2.09553383 18.90700974 2.09553383 18.90700974 2.09336853 20.28665161 C2.0877974 23.149469 2.07525026 26.01220648 2.0625 28.875 C2.05748127 30.82291553 2.05291901 32.7708323 2.04882812 34.71875 C2.03783742 39.47919718 2.02059277 44.23958507 2 49 C4.64 49 7.28 49 10 49 C10 47.68 10 46.36 10 45 C10.66 45 11.32 45 12 45 C12 44.01 12 43.02 12 42 C18.6 41.34 25.2 40.68 32 40 C29.29567328 42.70432672 27.25780287 42.56783347 23.5 43.0625 C19.10241884 43.54504561 19.10241884 43.54504561 15 45 C15 45.99 15 46.98 15 48 C19.95 48.33 24.9 48.66 30 49 C26.45986775 51.36008817 24.98878045 51.23463644 20.80078125 51.1953125 C19.71192627 51.19031738 18.62307129 51.18532227 17.5012207 51.18017578 C16.11894287 51.16196777 14.73666504 51.14375977 13.3125 51.125 C8.919375 51.08375 4.52625 51.0425 0 51 C0 34.17 0 17.34 0 0 Z " fill="#191919" transform="translate(559,895)"/>
<path d="M0 0 C0.56074219 0.46792969 1.12148438 0.93585938 1.69921875 1.41796875 C1.40983526 6.89558477 -1.86221488 9.64475868 -5.55078125 13.29296875 C-6.12441406 13.89882813 -6.69804688 14.5046875 -7.2890625 15.12890625 C-8.89868118 16.74219148 -10.39267054 18.17089035 -12.30078125 19.41796875 C-15.22265625 19.30078125 -15.22265625 19.30078125 -17.30078125 18.41796875 C-16.77971568 14.34249157 -14.71611453 12.55146448 -11.80078125 9.79296875 C-8.63384962 6.91519851 -8.63384962 6.91519851 -6.30078125 3.41796875 C-7.73939419 3.50543159 -9.17675633 3.61362223 -10.61328125 3.73046875 C-11.41378906 3.78847656 -12.21429687 3.84648437 -13.0390625 3.90625 C-15.75464147 4.5206556 -16.67105836 5.17773047 -18.30078125 7.41796875 C-19.16722479 10.39568296 -19.41858665 13.32136967 -19.30078125 16.41796875 C-18.00969415 18.83920065 -18.00969415 18.83920065 -16.30078125 20.41796875 C-16.30078125 21.07796875 -16.30078125 21.73796875 -16.30078125 22.41796875 C-15.64078125 22.74796875 -14.98078125 23.07796875 -14.30078125 23.41796875 C-16.61078125 24.07796875 -18.92078125 24.73796875 -21.30078125 25.41796875 C-26.00369088 19.95652531 -26.6793188 16.61018227 -26.30078125 9.41796875 C-25.07794124 4.86011055 -22.61909356 1.73628106 -19.30078125 -1.58203125 C-13.06495262 -4.51653884 -5.72004382 -3.93313709 0 0 Z " fill="#3D3D3D" transform="translate(810.30078125,383.58203125)"/>
<path d="M0 0 C4.87172784 2.42014867 6.90573909 5.50513424 8.94140625 10.33984375 C8.53515625 13.0625 8.53515625 13.0625 7.94140625 15.33984375 C-1.74413811 13.07911835 -11.41913906 10.79149696 -21.05859375 8.33984375 C-16.25270599 -0.108991 -9.38352799 -3.00913896 0 0 Z " fill="#3C3C3C" transform="translate(379.05859375,808.66015625)"/>
<path d="M0 0 C4.10522522 0.08670905 8.20819147 0.19356706 12.3125 0.3125 C13.47974609 0.33505859 14.64699219 0.35761719 15.84960938 0.38085938 C17.52700195 0.4340332 17.52700195 0.4340332 19.23828125 0.48828125 C20.26993408 0.51446533 21.30158691 0.54064941 22.36450195 0.56762695 C25 1 25 1 26.87963867 2.39526367 C28 4 28 4 27.6875 6.1875 C27.3471875 7.0846875 27.3471875 7.0846875 27 8 C22.31908701 8 21.37898396 7.00354129 18 4 C18 4.99 18 5.98 18 7 C16.02 7.99 14.04 8.98 12 10 C10.62437146 8.71034824 9.29233607 7.37310707 8 6 C8 5.34 8 4.68 8 4 C7.34 4 6.68 4 6 4 C6.47050781 4.50789062 6.94101562 5.01578125 7.42578125 5.5390625 C11.01734405 9.50985864 13.9022425 13.06409999 16 18 C12.9375 18.5 12.9375 18.5 9 18 C6.28705144 15.61176729 4.13518274 12.90748288 2 10 C1.67 12.97 1.34 15.94 1 19 C0.67 19 0.34 19 0 19 C0 12.73 0 6.46 0 0 Z " fill="#232323" transform="translate(426,758)"/>
<path d="M0 0 C1.18075621 3.71081827 1.10262648 7.20145704 1.06933594 11.07592773 C1.06454727 11.78049103 1.05975861 12.48505432 1.05482483 13.21096802 C1.03717062 15.53526964 1.01141566 17.85938346 0.984375 20.18359375 C0.96767533 21.80257632 0.95101328 23.42155928 0.93438721 25.0405426 C0.89794262 28.43244285 0.85672221 31.82425087 0.81298828 35.21606445 C0.75799537 39.55816639 0.7214573 43.90021439 0.68935776 48.2425375 C0.66146868 51.5858655 0.62041316 54.92893923 0.57575226 58.27208138 C0.55658438 59.87277253 0.54227437 61.47352963 0.53295135 63.0743084 C0.5185903 65.31485523 0.48566244 67.55441338 0.44824219 69.79467773 C0.43412292 71.06834702 0.42000366 72.3420163 0.40545654 73.65428162 C-0.0324681 77.26791801 -0.76389836 79.1511147 -3 82 C-6.5625 83.75 -6.5625 83.75 -10 85 C-10.99 85.495 -10.99 85.495 -12 86 C-12 93.59 -12 101.18 -12 109 C-9.69 109.33 -7.38 109.66 -5 110 C-5 110.33 -5 110.66 -5 111 C-7.97 111 -10.94 111 -14 111 C-14 101.43 -14 91.86 -14 82 C-9.545 81.01 -9.545 81.01 -5 80 C-4.01 79.505 -4.01 79.505 -3 79 C-2.99191315 78.1135228 -2.98382629 77.22704559 -2.97549438 76.31370544 C-2.89741739 67.94227706 -2.81008737 59.57100663 -2.71247292 51.19978237 C-2.66261685 46.89648575 -2.6162862 42.5932124 -2.578125 38.28979492 C-2.54113672 34.13348772 -2.49474073 29.97738049 -2.44193649 25.82124519 C-2.42346428 24.23893825 -2.40833009 22.65658855 -2.39665604 21.07421684 C-2.37967002 18.85062237 -2.35060702 16.62747875 -2.31884766 14.40405273 C-2.30552399 13.14052475 -2.29220032 11.87699677 -2.2784729 10.57518005 C-1.97968321 6.73916252 -1.17691852 3.64727472 0 0 Z " fill="#262626" transform="translate(463,457)"/>
<path d="M0 0 C0.9075 0.639375 1.815 1.27875 2.75 1.9375 C3.45382812 2.4015625 4.15765625 2.865625 4.8828125 3.34375 C10.47240391 7.47264679 10.47240391 7.47264679 11.2578125 11.6171875 C11.2507599 14.10675555 11.10671286 16.47519037 10.75 18.9375 C6.57556637 15.43675018 2.4354506 11.95799157 -1.25 7.9375 C-1.25 7.2775 -1.25 6.6175 -1.25 5.9375 C-2.85407328 5.91041433 -4.4582785 5.89106517 -6.0625 5.875 C-6.95582031 5.86339844 -7.84914063 5.85179687 -8.76953125 5.83984375 C-11.38413791 5.82740033 -11.38413791 5.82740033 -14.25 6.9375 C-14.58 7.5975 -14.91 8.2575 -15.25 8.9375 C-15.25 6.2975 -15.25 3.6575 -15.25 0.9375 C-15.91 0.6075 -16.57 0.2775 -17.25 -0.0625 C-12.32168498 -2.52665751 -5.08035219 -1.66088437 0 0 Z " fill="#3B3B3B" transform="translate(726.25,463.0625)"/>
<path d="M0 0 C0.33 0 0.66 0 1 0 C2.07483628 5.22913428 2.12930634 10.24506799 2.09765625 15.5546875 C2.09553383 16.90700974 2.09553383 16.90700974 2.09336853 18.28665161 C2.0877974 21.149469 2.07525026 24.01220648 2.0625 26.875 C2.05748127 28.82291553 2.05291901 30.7708323 2.04882812 32.71875 C2.03783742 37.47919718 2.02059277 42.23958507 2 47 C4.64 47 7.28 47 10 47 C10 45.68 10 44.36 10 43 C10.66 43 11.32 43 12 43 C12 42.01 12 41.02 12 40 C18.6 39.34 25.2 38.68 32 38 C29.29567328 40.70432672 27.25780287 40.56783347 23.5 41.0625 C19.10241884 41.54504561 19.10241884 41.54504561 15 43 C15 43.99 15 44.98 15 46 C19.95 46.33 24.9 46.66 30 47 C26.45986775 49.36008817 24.98878045 49.23463644 20.80078125 49.1953125 C19.71192627 49.19031738 18.62307129 49.18532227 17.5012207 49.18017578 C16.11894287 49.16196777 14.73666504 49.14375977 13.3125 49.125 C8.919375 49.08375 4.52625 49.0425 0 49 C0 32.83 0 16.66 0 0 Z " fill="#0C0C0C" transform="translate(559,897)"/>
<path d="M0 0 C9.24 0 18.48 0 28 0 C27.67 7.92 27.34 15.84 27 24 C26.67 24 26.34 24 26 24 C26 16.74 26 9.48 26 2 C18.08 2 10.16 2 2 2 C2 9.92 2 17.84 2 26 C10.58 26 19.16 26 28 26 C28 26.66 28 27.32 28 28 C18.76 28 9.52 28 0 28 C0 18.76 0 9.52 0 0 Z " fill="#212121" transform="translate(620,656)"/>
<path d="M0 0 C9.24 0 18.48 0 28 0 C28 9.24 28 18.48 28 28 C18.76 28 9.52 28 0 28 C0 27.34 0 26.68 0 26 C8.58 26 17.16 26 26 26 C26 18.08 26 10.16 26 2 C18.08 2 10.16 2 2 2 C2 9.26 2 16.52 2 24 C1.67 24 1.34 24 1 24 C0.67 16.08 0.34 8.16 0 0 Z " fill="#212121" transform="translate(552,656)"/>
<path d="M0 0 C1.9375 0.75 1.9375 0.75 4 2 C4.33333333 3.33333333 4.66666667 4.66666667 5 6 C6.31403276 6.70394612 7.6520257 7.36345658 9 8 C10.70779973 9.62449243 12.37550757 11.29220027 14 13 C14.598125 13.556875 15.19625 14.11375 15.8125 14.6875 C17 16 17 16 17 18 C17.598125 18.268125 18.19625 18.53625 18.8125 18.8125 C20.99847854 19.99917406 22.41332594 21.09599113 24 23 C24 23.66 24 24.32 24 25 C22.68 24.67 21.36 24.34 20 24 C20 26.97 20 29.94 20 33 C16.63986762 29.91910041 14.42649367 26.68954055 12.109375 22.7734375 C11.75989807 22.18454742 11.41042114 21.59565735 11.050354 20.98892212 C10.31809139 19.75182127 9.58878492 18.51296629 8.86230469 17.27246094 C7.74681812 15.36957208 6.62024837 13.47358089 5.4921875 11.578125 C0 2.27525564 0 2.27525564 0 0 Z " fill="#191919" transform="translate(773,775)"/>
<path d="M0 0 C9.78050385 -0.54420114 16.31080247 0.3922162 24.5625 5.625 C25.036875 6.07875 25.51125 6.5325 26 7 C26 7.66 26 8.32 26 9 C24.25 10.5078125 24.25 10.5078125 22 12.125 C21.2575 12.66382813 20.515 13.20265625 19.75 13.7578125 C19.1725 14.16773438 18.595 14.57765625 18 15 C17.236875 14.38125 16.47375 13.7625 15.6875 13.125 C11.27594257 10.127267 6.1830582 9.70091179 1 9 C1 8.67 1 8.34 1 8 C2.98 7.67 4.96 7.34 7 7 C7 6.01 7 5.02 7 4 C7.66 4 8.32 4 9 4 C9 3.34 9 2.68 9 2 C6.03 1.67 3.06 1.34 0 1 C0 0.67 0 0.34 0 0 Z " fill="#1A1A1A" transform="translate(753,895)"/>
<path d="M0 0 C0.33 0 0.66 0 1 0 C1 15.84 1 31.68 1 48 C3.64 48 6.28 48 9 48 C9 32.82 9 17.64 9 2 C6.69 1.67 4.38 1.34 2 1 C2 0.67 2 0.34 2 0 C4.97 0 7.94 0 11 0 C11 16.5 11 33 11 50 C7.37 50 3.74 50 0 50 C0 33.5 0 17 0 0 Z " fill="#050505" transform="translate(630,896)"/>
<path d="M0 0 C0.90105469 0.00902344 1.80210937 0.01804687 2.73046875 0.02734375 C3.41753906 0.03894531 4.10460937 0.05054688 4.8125 0.0625 C5.8125 3.0625 5.8125 3.0625 4.875 5.25 C4.524375 5.848125 4.17375 6.44625 3.8125 7.0625 C4.4725 7.7225 5.1325 8.3825 5.8125 9.0625 C2.8425 9.0625 -0.1275 9.0625 -3.1875 9.0625 C-3.1875 9.7225 -3.1875 10.3825 -3.1875 11.0625 C-5 11.75 -5 11.75 -7.1875 12.0625 C-8.9375 10.625 -8.9375 10.625 -10.1875 9.0625 C-9.8575 8.0725 -9.5275 7.0825 -9.1875 6.0625 C-8.5275 6.0625 -7.8675 6.0625 -7.1875 6.0625 C-7.1875 5.0725 -7.1875 4.0825 -7.1875 3.0625 C-8.8375 3.3925 -10.4875 3.7225 -12.1875 4.0625 C-12.1875 4.7225 -12.1875 5.3825 -12.1875 6.0625 C-13.1775 6.3925 -14.1675 6.7225 -15.1875 7.0625 C-15.6825 7.8875 -16.1775 8.7125 -16.6875 9.5625 C-18.1875 12.0625 -18.1875 12.0625 -21.1875 13.0625 C-22.85460346 14.56235609 -22.85460346 14.56235609 -24.1875 16.0625 C-24.1875 12.05200342 -22.76665784 10.76235083 -20.17578125 7.84375 C-14.65328928 2.89629157 -7.36835547 -0.09569293 0 0 Z " fill="#1A1A1A" transform="translate(757.1875,893.9375)"/>
<path d="M0 0 C0.33 0.99 0.66 1.98 1 3 C1.66 3 2.32 3 3 3 C4.4556962 10.27848101 4.4556962 10.27848101 2.5 13.375 C-1.50416419 15.97770672 -5.15715983 17.23525619 -9.9375 16.625 C-10.9584375 16.315625 -10.9584375 16.315625 -12 16 C-12 13 -12 13 -9.62890625 10.37109375 C-8.61413861 9.38558546 -7.59164611 8.40798351 -6.5625 7.4375 C-2.82510599 4.07641393 -2.82510599 4.07641393 0 0 Z " fill="#1A1A1A" transform="translate(812,387)"/>
<path d="M0 0 C1.32 0 2.64 0 4 0 C4.28875 0.639375 4.5775 1.27875 4.875 1.9375 C5.82823451 4.15206079 5.82823451 4.15206079 8 5 C8 5.66 8 6.32 8 7 C8.66 7 9.32 7 10 7 C11.515625 8.57421875 11.515625 8.57421875 13.25 10.6875 C15.50075728 13.35349133 17.70049545 15.71010091 20.4375 17.875 C21.283125 18.57625 22.12875 19.2775 23 20 C23 20.66 23 21.32 23 22 C23.66 22 24.32 22 25 22 C25 22.66 25 23.32 25 24 C25.66 24 26.32 24 27 24 C27 24.66 27 25.32 27 26 C27.61875 26.2475 28.2375 26.495 28.875 26.75 C31.35068687 28.20628639 31.95125002 29.37812506 33 32 C33.66 32 34.32 32 35 32 C35 32.66 35 33.32 35 34 C35.61875 34.2475 36.2375 34.495 36.875 34.75 C39.35068687 36.20628639 39.95125002 37.37812506 41 40 C41.66 40 42.32 40 43 40 C43 40.66 43 41.32 43 42 C43.99 42.33 44.98 42.66 46 43 C47.69088222 44.97956942 49.35830472 46.97945196 51 49 C51.99 49.495 51.99 49.495 53 50 C53 50.66 53 51.32 53 52 C48.78492862 50.35914429 45.98284278 47.23596301 42.87890625 44.07421875 C42.2971312 43.4896138 41.71535614 42.90500885 41.11595154 42.3026886 C39.26004158 40.43561298 37.41119648 38.56171566 35.5625 36.6875 C34.32272942 35.4376908 33.08249975 34.18833682 31.84179688 32.93945312 C29.55255606 30.6339166 27.26604865 28.32574236 24.98266602 26.0144043 C24.47945831 25.50597992 23.97625061 24.99755554 23.45779419 24.47372437 C22.05871094 23.0593525 20.66199333 21.64264175 19.26538086 20.22583008 C17.04235965 17.95478934 17.04235965 17.95478934 14.5 16.0625 C11.51433661 13.5993277 9.34439608 11.08120627 7 8 C7 7.34 7 6.68 7 6 C6.21625 5.938125 5.4325 5.87625 4.625 5.8125 C3.75875 5.544375 2.8925 5.27625 2 5 C0.6875 2.4375 0.6875 2.4375 0 0 Z " fill="#303030" transform="translate(770,771)"/>
<path d="M0 0 C0.43195175 0.58547607 0.8639035 1.17095215 1.3089447 1.77416992 C6.92345302 9.16419525 13.52137108 15.65651089 20.08984375 22.1875 C21.04412993 23.13991612 21.99819188 24.09255695 22.95204163 25.04541016 C25.4370797 27.52666925 27.92510796 30.00490791 30.41381836 32.48248291 C32.96327496 35.02162485 35.50982688 37.56367646 38.05664062 40.10546875 C43.03495631 45.07312882 48.01644371 50.03759686 53 55 C48.82252779 55 46.93046229 52.67424701 44 50 C43.38125 49.443125 42.7625 48.88625 42.125 48.3125 C41 47 41 47 41 45 C40.34 45 39.68 45 39 45 C38.443125 44.29875 37.88625 43.5975 37.3125 42.875 C35.46481056 40.57787259 33.9252802 39.01886721 31.6875 37.1875 C29.2137716 35.12346666 27.07425837 33.02601508 25 30.5625 C21.33174639 26.24937075 17.37256302 22.25478405 13.375 18.25 C12.72917969 17.59974854 12.08335937 16.94949707 11.41796875 16.27954102 C8.08929056 12.96072876 4.73956075 9.86246378 1 7 C-1.37887851 4.87600133 -1.9553247 4.13402591 -3 1 C-2.01 0.67 -1.02 0.34 0 0 Z " fill="#333333" transform="translate(356,352)"/>
<path d="M0 0 C7.008594 1.14426025 9.74440584 4.54151818 14 10 C14.97555761 11.1696862 15.95427678 12.33674999 16.9375 13.5 C17.618125 14.325 18.29875 15.15 19 16 C18.01 16.99 17.02 17.98 16 19 C12.06104586 17.39073607 9.29244343 14.69442092 6.3125 11.75 C5.81427734 11.28464844 5.31605469 10.81929687 4.80273438 10.33984375 C1.46871252 7.05558341 0.29651645 4.6615145 0 0 Z " fill="#3E3E3E" transform="translate(382,802)"/>
<path d="M0 0 C0 33.99 0 67.98 0 103 C-0.33 103 -0.66 103 -1 103 C-1.33 70 -1.66 37 -2 3 C-3.65 3.33 -5.3 3.66 -7 4 C-7 3.34 -7 2.68 -7 2 C-2.25 0 -2.25 0 0 0 Z " fill="#DFDFDF" transform="translate(814,401)"/>
<path d="M0 0 C-0.58652352 4.48993869 -1.7643538 8.22543184 -3.5625 12.375 C-4.01753906 13.43460938 -4.47257812 14.49421875 -4.94140625 15.5859375 C-5.29074219 16.38257813 -5.64007813 17.17921875 -6 18 C-6.99 17.67 -7.98 17.34 -9 17 C-9.08160748 15.10489301 -9.13946459 13.20875496 -9.1875 11.3125 C-9.22230469 10.25675781 -9.25710938 9.20101562 -9.29296875 8.11328125 C-8.96323813 4.60934385 -8.08584712 2.80301489 -6 0 C-3.50907189 -1.24546405 -2.58919267 -0.7767578 0 0 Z " fill="#373737" transform="translate(415,764)"/>
<path d="M0 0 C11.85964912 9.57894737 11.85964912 9.57894737 14 16 C10.9375 16.5 10.9375 16.5 7 16 C3.38969353 13.32363381 0.41583643 10.19799256 -0.4375 5.6875 C-0.4375 3.5 -0.4375 3.5 0 0 Z " fill="#3C3C3C" transform="translate(428,760)"/>
<path d="M0 0 C2.125 0.9375 2.125 0.9375 4 2 C3.74462428 4.1060986 3.47014626 6.20988754 3.1875 8.3125 C3.03667969 9.48425781 2.88585937 10.65601563 2.73046875 11.86328125 C2.00135005 14.99420274 1.50828536 16.09645193 -1 18 C-3.41919122 15.48000914 -3.98495638 14.16247108 -4.3125 10.625 C-4.00564674 7.06550215 -3.40488097 4.2780556 -2 1 C-1.34 0.67 -0.68 0.34 0 0 Z " fill="#3E3E3E" transform="translate(774,400)"/>
<path d="M0 0 C3 2.375 3 2.375 5 5 C5 5.66 5 6.32 5 7 C7.475 7.495 7.475 7.495 10 8 C6.9905188 8.93833174 4.9867189 9.00842377 1.92578125 8.29296875 C1.17619141 8.11830078 0.42660156 7.94363281 -0.34570312 7.76367188 C-1.11849609 7.57353516 -1.89128906 7.38339844 -2.6875 7.1875 C-3.8640918 6.91969727 -3.8640918 6.91969727 -5.06445312 6.64648438 C-7.06124988 6.16842673 -9.03376934 5.59133186 -11 5 C-11.33 4.34 -11.66 3.68 -12 3 C-8.53913428 -0.46086572 -4.67335245 -1.01795796 0 0 Z " fill="#191919" transform="translate(376,814)"/>
<path d="M0 0 C2.04119788 1.61594832 4.04072937 3.2856382 6 5 C6 5.66 6 6.32 6 7 C6.66 7 7.32 7 8 7 C8 7.66 8 8.32 8 9 C9.32 9.66 10.64 10.32 12 11 C12 11.66 12 12.32 12 13 C11.34 13 10.68 13 10 13 C9.67 13.99 9.34 14.98 9 16 C4.95840744 14.50311387 2.03630285 11.76184463 0 8 C-0.40967711 5.18789538 -0.2467224 2.86197983 0 0 Z " fill="#3B3B3B" transform="translate(711,484)"/>
<path d="M0 0 C0.33 0.66 0.66 1.32 1 2 C2.32 2 3.64 2 5 2 C4.566875 2.8353125 4.566875 2.8353125 4.125 3.6875 C2.9586747 6.08494645 1.9660119 8.51596939 1 11 C-0.66666667 11 -2.33333333 11 -4 11 C-4 11.66 -4 12.32 -4 13 C-4.99 13.33 -5.98 13.66 -7 14 C-7.75 12.375 -7.75 12.375 -8 10 C-5.81492325 6.11541911 -3.25836697 3.02562647 0 0 Z " fill="#1C1C1C" transform="translate(431,899)"/>
<path d="M0 0 C3.9126984 1.3042328 6.37310241 2.78934739 9 6 C9 9 9 9 7.6875 10.38671875 C6.125 11.59114583 4.5625 12.79557292 3 14 C2.34 12.35 1.68 10.7 1 9 C1.66 11.97 2.32 14.94 3 18 C1 17 1 17 -0.3125 14.25 C-2.10779762 10.79238977 -4.1479189 8.62083128 -7 6 C-3.04 6 0.92 6 5 6 C3.35 4.02 1.7 2.04 0 0 Z " fill="#121212" transform="translate(596,899)"/>
<path d="M0 0 C0.67480408 -0.00095673 1.34960815 -0.00191345 2.04486084 -0.00289917 C3.47733656 -0.00358116 4.90981534 -0.00172555 6.34228516 0.00244141 C8.52383494 0.00775637 10.7051757 0.00251441 12.88671875 -0.00390625 C14.27864629 -0.00324482 15.67057369 -0.00196232 17.0625 0 C18.32868164 0.00112793 19.59486328 0.00225586 20.89941406 0.00341797 C23.83731433 0.11530983 26.44652177 0.44842869 29.296875 1.1328125 C29.296875 1.4628125 29.296875 1.7928125 29.296875 2.1328125 C17.746875 2.1328125 6.196875 2.1328125 -5.703125 2.1328125 C-6.033125 3.7828125 -6.363125 5.4328125 -6.703125 7.1328125 C-7.033125 7.1328125 -7.363125 7.1328125 -7.703125 7.1328125 C-7.74566856 5.13326504 -7.74393283 3.13239614 -7.703125 1.1328125 C-5.81091404 -0.75939846 -2.51385075 0.00224738 0 0 Z " fill="#272727" transform="translate(683.703125,775.8671875)"/>
<path d="M0 0 C2.3359375 2.05859375 2.3359375 2.05859375 4 4 C0.8765076 4.25427918 -2.24846821 4.47412319 -5.375 4.6875 C-6.70917969 4.79674805 -6.70917969 4.79674805 -8.0703125 4.90820312 C-9.34648437 4.99038086 -9.34648437 4.99038086 -10.6484375 5.07421875 C-11.43395996 5.13182373 -12.21948242 5.18942871 -13.02880859 5.2487793 C-14.00454834 5.12563354 -14.00454834 5.12563354 -15 5 C-15.66 4.01 -16.32 3.02 -17 2 C-11.60318354 -1.64649761 -6.15010499 -1.70010455 0 0 Z " fill="#3C3C3C" transform="translate(510,678)"/>
<path d="M0 0 C0.99 0.99 1.98 1.98 3 3 C5.64 2.01 8.28 1.02 11 0 C10.59791618 5.62917348 8.71069698 8.00386479 5 12 C3 11 3 11 1 8 C1.99 8 2.98 8 4 8 C2.35 7.67 0.7 7.34 -1 7 C-0.67 6.34 -0.34 5.68 0 5 C-0.33 4.67 -0.66 4.34 -1 4 C-0.5625 1.9375 -0.5625 1.9375 0 0 Z " fill="#131313" transform="translate(597,927)"/>
<path d="M0 0 C5 5 5 5 6.3215332 6.63598633 C8.70495535 8.57288517 10.50057001 8.43123201 13.54296875 8.51171875 C15.15268555 8.56489258 15.15268555 8.56489258 16.79492188 8.61914062 C17.91447266 8.64169922 19.03402344 8.66425781 20.1875 8.6875 C21.31865234 8.72166016 22.44980469 8.75582031 23.61523438 8.79101562 C26.4100574 8.87356314 29.20456398 8.94269182 32 9 C32 9.33 32 9.66 32 10 C21.44 10 10.88 10 0 10 C0 6.7 0 3.4 0 0 Z " fill="#020202" transform="translate(427,767)"/>
<path d="M0 0 C2.10388569 -0.05402274 4.20816714 -0.09280256 6.3125 -0.125 C8.07013672 -0.15980469 8.07013672 -0.15980469 9.86328125 -0.1953125 C13 0 13 0 16 2 C15.01 4.64 14.02 7.28 13 10 C9.04 9.67 5.08 9.34 1 9 C1 8.67 1 8.34 1 8 C2.98 7.67 4.96 7.34 7 7 C7 6.01 7 5.02 7 4 C7.66 4 8.32 4 9 4 C9 3.34 9 2.68 9 2 C6.03 1.67 3.06 1.34 0 1 C0 0.67 0 0.34 0 0 Z " fill="#0E0E0E" transform="translate(753,895)"/>
<path d="M0 0 C1.625 2.5 1.625 2.5 3 5 C-0.465 6.485 -0.465 6.485 -4 8 C-4 8.66 -4 9.32 -4 10 C-8.455 10.495 -8.455 10.495 -13 11 C-11.71937515 9.2925002 -10.38232443 7.62626404 -9 6 C-8.34 6 -7.68 6 -7 6 C-6.67 5.01 -6.34 4.02 -6 3 C-2.55555556 0 -2.55555556 0 0 0 Z " fill="#3A3A3A" transform="translate(762,414)"/>
<path d="M0 0 C1.9375 0.6875 1.9375 0.6875 4 2 C4.75 4.625 4.75 4.625 5 7 C4.01 7.66 3.02 8.32 2 9 C2.66 9.33 3.32 9.66 4 10 C3.34 11.32 2.68 12.64 2 14 C1.01 13.34 0.02 12.68 -1 12 C-1.33 12.33 -1.66 12.66 -2 13 C-2.66 12.01 -3.32 11.02 -4 10 C-3.08977798 6.43496376 -1.74166645 3.23452341 0 0 Z " fill="#1F1F1F" transform="translate(690,917)"/>
<path d="M0 0 C0.90105469 0.00902344 1.80210937 0.01804687 2.73046875 0.02734375 C3.41753906 0.03894531 4.10460937 0.05054688 4.8125 0.0625 C4.8125 0.3925 4.8125 0.7225 4.8125 1.0625 C3.92498047 1.13597656 3.92498047 1.13597656 3.01953125 1.2109375 C-1.42387885 1.63135803 -5.07113925 2.24645849 -9.1875 4.0625 C-10.1775 4.0625 -11.1675 4.0625 -12.1875 4.0625 C-12.1875 4.7225 -12.1875 5.3825 -12.1875 6.0625 C-13.1775 6.3925 -14.1675 6.7225 -15.1875 7.0625 C-15.6825 7.8875 -16.1775 8.7125 -16.6875 9.5625 C-18.1875 12.0625 -18.1875 12.0625 -21.1875 13.0625 C-22.85460346 14.56235609 -22.85460346 14.56235609 -24.1875 16.0625 C-24.1875 12.05200342 -22.76665784 10.76235083 -20.17578125 7.84375 C-14.65328928 2.89629157 -7.36835547 -0.09569293 0 0 Z " fill="#2E2E2E" transform="translate(757.1875,893.9375)"/>
<path d="M0 0 C2.625 0.375 2.625 0.375 5 1 C5 1.99 5 2.98 5 4 C3.68 3.67 2.36 3.34 1 3 C1 3.66 1 4.32 1 5 C1.99 5.33 2.98 5.66 4 6 C3.01 6 2.02 6 1 6 C1 6.66 1 7.32 1 8 C5.62 8.66 10.24 9.32 15 10 C15 10.33 15 10.66 15 11 C7.64825194 11.55253221 2.488417 10.51064108 -4 7 C-2.92598892 4.08482708 -2.22189824 2.22189824 0 0 Z " fill="#242424" transform="translate(747,936)"/>
<path d="M0 0 C2.97 0.99 5.94 1.98 9 3 C6.43461521 5.56538479 3.93954104 6.37357879 0.5625 7.6875 C-0.59121094 8.14511719 -1.74492188 8.60273438 -2.93359375 9.07421875 C-6 10 -6 10 -9 9 C-7.02 8.34 -5.04 7.68 -3 7 C-3 6.34 -3 5.68 -3 5 C-3.66 4.67 -4.32 4.34 -5 4 C-3.35 3.67 -1.7 3.34 0 3 C0 2.01 0 1.02 0 0 Z " fill="#131313" transform="translate(879,367)"/>
<path d="M0 0 C1.33951026 7.42819325 1.33951026 7.42819325 -0.1875 10 C-2 11 -2 11 -6 11 C-5.38857603 3.54062751 -5.38857603 3.54062751 -3.5625 1 C-2 0 -2 0 0 0 Z " fill="#393939" transform="translate(815,390)"/>
<path d="M0 0 C7.39954511 -0.36391205 7.39954511 -0.36391205 10.0625 1.25 C11 3 11 3 10.6875 5.1875 C10.3471875 6.0846875 10.3471875 6.0846875 10 7 C6 7 6 7 4.296875 5.46875 C3.78640625 4.8190625 3.2759375 4.169375 2.75 3.5 C2.22921875 2.8503125 1.7084375 2.200625 1.171875 1.53125 C0.78515625 1.0259375 0.3984375 0.520625 0 0 Z " fill="#3D3D3D" transform="translate(443,759)"/>
<path d="M0 0 C0 1.65 0 3.3 0 5 C-1.65 5.33 -3.3 5.66 -5 6 C-5 5.01 -5 4.02 -5 3 C-5.39058594 3.48855469 -5.78117187 3.97710938 -6.18359375 4.48046875 C-8.57493107 6.48096384 -9.98258672 6.37146741 -13.0625 6.3125 C-13.94035156 6.30863281 -14.81820313 6.30476562 -15.72265625 6.30078125 C-18 6 -18 6 -20 4 C-19.26394531 3.87882813 -18.52789062 3.75765625 -17.76953125 3.6328125 C-16.79371094 3.46523438 -15.81789063 3.29765625 -14.8125 3.125 C-13.84957031 2.96257813 -12.88664062 2.80015625 -11.89453125 2.6328125 C-8.99717239 2.08663781 -8.99717239 2.08663781 -6.38671875 0.9296875 C-4 0 -4 0 0 0 Z " fill="#101010" transform="translate(396,841)"/>
<path d="M0 0 C1.32 0.33 2.64 0.66 4 1 C3.34 2.98 2.68 4.96 2 7 C1.34 7 0.68 7 0 7 C-0.33 8.32 -0.66 9.64 -1 11 C-1.33 10.34 -1.66 9.68 -2 9 C-2.99 9.99 -3.98 10.98 -5 12 C-5.33 9.69 -5.66 7.38 -6 5 C-5.01 5.33 -4.02 5.66 -3 6 C-2.01 4.02 -1.02 2.04 0 0 Z " fill="#1E1E1E" transform="translate(739,924)"/>
<path d="M0 0 C7.59 0 15.18 0 23 0 C23 0.33 23 0.66 23 1 C17.06 1 11.12 1 5 1 C5.66 3.31 6.32 5.62 7 8 C6.01 8.495 6.01 8.495 5 9 C3.35 6.03 1.7 3.06 0 0 Z " fill="#0D0D0D" transform="translate(762,758)"/>
<path d="M0 0 C5.6194584 -0.57341412 8.36404155 0.4406642 12.71484375 3.7109375 C14 5 14 5 14 7 C13.21625 7.309375 12.4325 7.61875 11.625 7.9375 C9.07669872 8.92875038 9.07669872 8.92875038 7 10 C6.67 9.01 6.34 8.02 6 7 C6.99 6.01 7.98 5.02 9 4 C8.34 4 7.68 4 7 4 C7 3.34 7 2.68 7 2 C4.69 1.67 2.38 1.34 0 1 C0 0.67 0 0.34 0 0 Z " fill="#1D1D1D" transform="translate(765,897)"/>
<path d="M0 0 C3.80664344 0.1057401 4.9541307 0.9541307 7.6875 3.6875 C9.91738572 6.58354655 11.07030138 9.45024164 12 13 C11.01 13.495 11.01 13.495 10 14 C10 13.01 10 12.02 10 11 C9.34 10.67 8.68 10.34 8 10 C8.33 9.34 8.66 8.68 9 8 C7.35 8 5.7 8 4 8 C4.33 6.68 4.66 5.36 5 4 C4.38125 3.690625 3.7625 3.38125 3.125 3.0625 C1.75 2.375 0.375 1.6875 -1 1 C-0.67 0.67 -0.34 0.34 0 0 Z " fill="#141414" transform="translate(526,900)"/>
<path d="M0 0 C0.63228516 0.86431641 0.63228516 0.86431641 1.27734375 1.74609375 C3.50500727 4.66074648 5.93732845 7.36203897 8.37890625 10.09765625 C10 12 10 12 12 15 C9.10056397 13.66817114 6.83122901 12.1670537 4.4375 10.0625 C3.85871094 9.55847656 3.27992188 9.05445313 2.68359375 8.53515625 C1.85021484 7.77525391 1.85021484 7.77525391 1 7 C0.45472656 6.50371094 -0.09054687 6.00742187 -0.65234375 5.49609375 C-2 4 -2 4 -3 1 C-2.01 0.67 -1.02 0.34 0 0 Z " fill="#2D2D2D" transform="translate(356,352)"/>
<path d="M0 0 C4.12751449 0.60698743 7.3321148 2.03810791 11 4 C11 4.33 11 4.66 11 5 C10.05125 5.309375 9.1025 5.61875 8.125 5.9375 C5.13919592 6.87394742 5.13919592 6.87394742 3 8 C0 2.25 0 2.25 0 0 Z " fill="#131313" transform="translate(782,328)"/>
<path d="M0 0 C0 0.66 0 1.32 0 2 C0.99 2 1.98 2 3 2 C2.67 2.66 2.34 3.32 2 4 C1.01 4 0.02 4 -1 4 C-1.33 4.99 -1.66 5.98 -2 7 C-2.99 7 -3.98 7 -5 7 C-5.33 6.34 -5.66 5.68 -6 5 C-8.02463255 4.34786708 -8.02463255 4.34786708 -10 4 C-2 0 -2 0 0 0 Z " fill="#131313" transform="translate(529,931)"/>
<path d="M0 0 C2.75328098 2.37783357 3.96944911 4.51198161 5 8 C5.07646165 10.3320802 5.09143299 12.66845878 5 15 C4.34 15 3.68 15 3 15 C0.65881273 11.34189489 0.92405607 8.25286034 1 4 C0.57145005 1.68963085 0.57145005 1.68963085 0 0 Z " fill="#191919" transform="translate(732,444)"/>
<path d="M0 0 C5.86503696 0.3856827 10.86862052 1.0066953 16 4 C16.9375 6.6875 16.9375 6.6875 17 9 C16.34 7.68 15.68 6.36 15 5 C13.6078125 5.061875 13.6078125 5.061875 12.1875 5.125 C9 5 9 5 6 3 C4.01200182 2.29835358 2.01301483 1.62627128 0 1 C0 0.67 0 0.34 0 0 Z " fill="#121212" transform="translate(384,802)"/>
<path d="M0 0 C5.53846154 -0.36923077 5.53846154 -0.36923077 7.875 1.5 C8.24625 1.995 8.6175 2.49 9 3 C6.27050155 3.90983282 4.77865751 4 2 4 C1.67 5.65 1.34 7.3 1 9 C0.34 9 -0.32 9 -1 9 C-1.125 2.25 -1.125 2.25 0 0 Z " fill="#222222" transform="translate(458,898)"/>
<path d="M0 0 C6.45892714 -0.40368295 11.06108578 0.4084738 17 3 C14 5 14 5 11 6 C10.67 5.01 10.34 4.02 10 3 C6.7 2.34 3.4 1.68 0 1 C0 0.67 0 0.34 0 0 Z " fill="#0D0D0D" transform="translate(709,759)"/>
<path d="M0 0 C4.3890815 0.51035831 7.33708062 1.52214277 11 4 C8.68143083 5.54571278 6.49361571 6.79618552 4 8 C3.34 7.34 2.68 6.68 2 6 C2.66 6 3.32 6 4 6 C4 4.68 4 3.36 4 2 C2.68 1.67 1.36 1.34 0 1 C0 0.67 0 0.34 0 0 Z " fill="#101010" transform="translate(454,398)"/>
<path d="M0 0 C0.33 -0.66 0.66 -1.32 1 -2 C1 -0.02 1 1.96 1 4 C-0.46067199 3.54917531 -1.91848032 3.08906463 -3.375 2.625 C-4.18710937 2.36976563 -4.99921875 2.11453125 -5.8359375 1.8515625 C-8 1 -8 1 -10 -1 C-6.06329512 -2.31223496 -3.87511856 -1.24296256 0 0 Z " fill="#212121" transform="translate(662,306)"/>
<path d="M0 0 C0.66 1.32 1.32 2.64 2 4 C1.01 5.485 1.01 5.485 0 7 C-0.66 7 -1.32 7 -2 7 C-2 7.99 -2 8.98 -2 10 C-4.88834003 12.10770759 -6.38462395 13 -10 13 C-9.52949219 12.56429687 -9.05898438 12.12859375 -8.57421875 11.6796875 C-4.7848786 8.05510127 -2.04329447 4.92794549 0 0 Z " fill="#DDDDDD" transform="translate(621,841)"/>
<path d="M0 0 C-1.98 2.97 -1.98 2.97 -4 6 C-5.65 5.67 -7.3 5.34 -9 5 C-9 4.34 -9 3.68 -9 3 C-8.34 3 -7.68 3 -7 3 C-7 2.01 -7 1.02 -7 0 C-4.3333581 -1.33332095 -2.83319697 -0.67102033 0 0 Z " fill="#1E1E1E" transform="translate(789,382)"/>
<path d="M0 0 C0.268125 0.556875 0.53625 1.11375 0.8125 1.6875 C3.53577357 7.07195042 3.53577357 7.07195042 8 11 C8 11.66 8 12.32 8 13 C5.75 13 5.75 13 3 12 C1.17376352 9.5215362 -0.1539442 6.96119531 -1 4 C-0.6015625 1.73828125 -0.6015625 1.73828125 0 0 Z " fill="#202020" transform="translate(490,642)"/>
<path d="M0 0 C2.64752004 2.57784846 4.94432065 4.91648098 7 8 C4.69 8 2.38 8 0 8 C0 5.36 0 2.72 0 0 Z " fill="#1A1A1A" transform="translate(428,768)"/>
<path d="M0 0 C3.46941546 0.45822468 6.67395049 0.89131683 10 2 C10 4 10 4 8.5625 5.5 C8.046875 5.995 7.53125 6.49 7 7 C6.67 7.66 6.34 8.32 6 9 C5.34 9 4.68 9 4 9 C4.66 7.35 5.32 5.7 6 4 C5.34 4 4.68 4 4 4 C3.67 3.34 3.34 2.68 3 2 C2.01 1.34 1.02 0.68 0 0 Z " fill="#131313" transform="translate(401,760)"/>
<path d="M0 0 C0.66 0.33 1.32 0.66 2 1 C-0.03643934 4.05465901 -0.63943304 4.87981101 -4 6 C-7.25 5.625 -7.25 5.625 -10 5 C-6.76527494 2.84351662 -3.62848922 1.38542316 0 0 Z M-10 6 C-8 7 -8 7 -8 7 Z " fill="#1F1F1F" transform="translate(639,440)"/>
<path d="M0 0 C0.66 0.99 1.32 1.98 2 3 C0 6 0 6 -3 7 C-4.66710346 8.49985609 -4.66710346 8.49985609 -6 10 C-6 6.41087588 -5.33563446 5.89142971 -3 3.3125 C-2.443125 2.68988281 -1.88625 2.06726563 -1.3125 1.42578125 C-0.879375 0.95527344 -0.44625 0.48476563 0 0 Z " fill="#242424" transform="translate(739,900)"/>
<path d="M0 0 C0.66 0 1.32 0 2 0 C2 0.66 2 1.32 2 2 C3.65 1.67 5.3 1.34 7 1 C4.64531545 3.72647685 2.4591583 4.98756342 -1 6 C-3.3125 5.625 -3.3125 5.625 -5 5 C-4.67 4.34 -4.34 3.68 -4 3 C-2.02 3.495 -2.02 3.495 0 4 C0 2.68 0 1.36 0 0 Z " fill="#111111" transform="translate(458,940)"/>
<path d="M0 0 C1.625 2.5 1.625 2.5 3 5 C1.35 5.66 -0.3 6.32 -2 7 C-2.33 6.01 -2.66 5.02 -3 4 C-3.66 3.67 -4.32 3.34 -5 3 C-2.25 0 -2.25 0 0 0 Z " fill="#3F3F3F" transform="translate(762,414)"/>
<path d="M0 0 C0.66 0 1.32 0 2 0 C0.43358249 4.30764815 -1.68336156 8.06171464 -4 12 C-4.66 12 -5.32 12 -6 12 C-5.01 8.7 -4.02 5.4 -3 2 C-2.34 2.33 -1.68 2.66 -1 3 C-0.67 2.01 -0.34 1.02 0 0 Z " fill="#111111" transform="translate(847,787)"/>
<path d="M0 0 C0.99 0 1.98 0 3 0 C2.67 0.99 2.34 1.98 2 3 C1.34 3 0.68 3 0 3 C-0.66 5.97 -1.32 8.94 -2 12 C-2.99 11.34 -3.98 10.68 -5 10 C-3.66786942 6.4134946 -2.23083941 3.12317517 0 0 Z " fill="#262626" transform="translate(830,779)"/>
<path d="M0 0 C0 0.66 0 1.32 0 2 C-1.98 2.99 -1.98 2.99 -4 4 C-3.67 4.66 -3.34 5.32 -3 6 C-5.31 6.33 -7.62 6.66 -10 7 C-8.89184175 3.78634109 -8.01470446 3.0085776 -5 1.25 C-2 0 -2 0 0 0 Z " fill="#121212" transform="translate(356,760)"/>
<path d="M0 0 C2.1875 0.3125 2.1875 0.3125 4 1 C3.67 1.33 3.34 1.66 3 2 C3.66 2.66 4.32 3.32 5 4 C5 4.66 5 5.32 5 6 C0.44615385 6.36923077 0.44615385 6.36923077 -1.8125 4.5 C-2.204375 4.005 -2.59625 3.51 -3 3 C-1.75 1.4375 -1.75 1.4375 0 0 Z " fill="#131313" transform="translate(659,432)"/>
<path d="M0 0 C5.77378925 0.4811491 9.95859836 2.18467181 15 5 C12.19966161 6.11346788 11.09856297 6.03510273 8.203125 5.00390625 C7.22859375 4.52824219 6.2540625 4.05257813 5.25 3.5625 C4.26515625 3.08941406 3.2803125 2.61632812 2.265625 2.12890625 C1.51796875 1.75636719 0.7703125 1.38382812 0 1 C0 0.67 0 0.34 0 0 Z " fill="#111111" transform="translate(852,357)"/>
<path d="M0 0 C3 1 3 1 4 3 C6.02463255 3.65213292 6.02463255 3.65213292 8 4 C2.25 7 2.25 7 0 7 C-1.125 2.25 -1.125 2.25 0 0 Z " fill="#121212" transform="translate(450,338)"/>
<path d="M0 0 C3.875 1.75 3.875 1.75 5 4 C3.68 4 2.36 4 1 4 C0.67 4.99 0.34 5.98 0 7 C-2.0625 8.1875 -2.0625 8.1875 -4 9 C-4.66 8.01 -5.32 7.02 -6 6 C-5.38125 5.7525 -4.7625 5.505 -4.125 5.25 C-1.64931313 3.79371361 -1.04874998 2.62187494 0 0 Z " fill="#232323" transform="translate(527,901)"/>
<path d="M0 0 C0.66 0.33 1.32 0.66 2 1 C1.54625 1.515625 1.0925 2.03125 0.625 2.5625 C-1.38200383 5.57300574 -2.12731809 8.50927237 -3 12 C-3.33 12 -3.66 12 -4 12 C-4 8.66666667 -4 5.33333333 -4 2 C-2.125 0.9375 -2.125 0.9375 0 0 Z " fill="#0B0B0B" transform="translate(361,778)"/>
<path d="M0 0 C1.32 0 2.64 0 4 0 C4.268125 0.928125 4.53625 1.85625 4.8125 2.8125 C5.91148371 5.76240366 6.62418561 7.05615186 9 9 C6.66471585 8.82701599 5.30822418 8.29774631 3.62109375 6.66796875 C0 2.42788462 0 2.42788462 0 0 Z " fill="#111111" transform="translate(470,665)"/>
<path d="M0 0 C1.88391785 3.26545761 2.49287967 6.28111761 3 10 C0.69 10 -1.62 10 -4 10 C-3.525625 9.0925 -3.05125 8.185 -2.5625 7.25 C-1.35371179 4.73572051 -0.52006114 2.70431791 0 0 Z " fill="#262626" transform="translate(709,642)"/>
<path d="M0 0 C-0.33 1.98 -0.66 3.96 -1 6 C-1.66 6 -2.32 6 -3 6 C-3 6.66 -3 7.32 -3 8 C-3.66 8 -4.32 8 -5 8 C-5.36625971 3.48279689 -5.36625971 3.48279689 -3.625 1.1875 C-2 0 -2 0 0 0 Z " fill="#404040" transform="translate(815,390)"/>
<path d="M0 0 C0.66 0 1.32 0 2 0 C2.33 1.98 2.66 3.96 3 6 C-0.05263664 6.98120464 -1.94736336 6.98120464 -5 6 C-3.4198632 3.84526801 -1.89353366 1.89353366 0 0 Z " fill="#212121" transform="translate(380,342)"/>
<path d="M0 0 C0.33 1.32 0.66 2.64 1 4 C-2.2192268 5.0730756 -2.90206442 4.79946725 -6 4 C-6.99 4.495 -6.99 4.495 -8 5 C-8 4.01 -8 3.02 -8 2 C-2.25 0.875 -2.25 0.875 0 2 C0 1.34 0 0.68 0 0 Z " fill="#151515" transform="translate(502,897)"/>
<path d="M0 0 C0 2 0 2 -1.625 4.1875 C-4 6 -4 6 -7.25 5.75 C-8.1575 5.5025 -9.065 5.255 -10 5 C-7.31217681 1.88778367 -4.19734673 0 0 0 Z " fill="#101010" transform="translate(745,398)"/>
<path d="M0 0 C0.66 0 1.32 0 2 0 C1.67 4.29 1.34 8.58 1 13 C-1.44323037 10.55676963 -1.68989682 9.411135 -2 6 C-1.0625 2.6875 -1.0625 2.6875 0 0 Z " fill="#0C0C0C" transform="translate(741,913)"/>
<path d="M0 0 C2.70272533 2.87164566 3.94791837 4.30991841 4.25 8.3125 C4.1675 9.199375 4.085 10.08625 4 11 C-0.62452592 5.62958281 -0.62452592 5.62958281 -1 2 C-0.67 1.34 -0.34 0.68 0 0 Z " fill="#242424" transform="translate(794,769)"/>
<path d="M0 0 C0.8353125 0.556875 0.8353125 0.556875 1.6875 1.125 C0.6975 1.62 0.6975 1.62 -0.3125 2.125 C0.0175 2.785 0.3475 3.445 0.6875 4.125 C-0.3025 4.455 -1.2925 4.785 -2.3125 5.125 C-5 3.1875 -5 3.1875 -7.3125 1.125 C-2.88173077 -1.09038462 -2.88173077 -1.09038462 0 0 Z " fill="#242424" transform="translate(658.3125,433.875)"/>
<path d="M0 0 C2.64 0.99 5.28 1.98 8 3 C4.3558226 5.4294516 2.28758728 5.16179575 -2 5 C-1.34 3.35 -0.68 1.7 0 0 Z " fill="#212121" transform="translate(442,392)"/>
<path d="M0 0 C3.66666667 0 7.33333333 0 11 0 C11 0.99 11 1.98 11 3 C9.54257537 3.08096803 8.08387193 3.13917774 6.625 3.1875 C5.81289063 3.22230469 5.00078125 3.25710938 4.1640625 3.29296875 C3.44992187 3.19628906 2.73578125 3.09960938 2 3 C1.34 2.01 0.68 1.02 0 0 Z " fill="#121212" transform="translate(818,378)"/>
<path d="M0 0 C3.71888239 0.50712033 6.73454239 1.11608215 10 3 C8.01432292 3.48828125 6.02864583 3.9765625 4.04296875 4.46484375 C2.34316798 4.91010705 0.66698046 5.44433985 -1 6 C-0.67 4.02 -0.34 2.04 0 0 Z " fill="#1F1F1F" transform="translate(861,361)"/>
<path d="M0 0 C2.97 0.495 2.97 0.495 6 1 C4.02579865 3.52259061 3.03254358 3.9929808 -0.1875 4.6875 C-1.5796875 4.8421875 -1.5796875 4.8421875 -3 5 C-2.34 4.67 -1.68 4.34 -1 4 C-0.34786708 1.97536745 -0.34786708 1.97536745 0 0 Z " fill="#121212" transform="translate(575,290)"/>
<path d="M0 0 C0.66 0.33 1.32 0.66 2 1 C-0.97 3.475 -0.97 3.475 -4 6 C-4.99 4.68 -5.98 3.36 -7 2 C-4.92446352 1.4465236 -3.15634036 1 -1 1 C-0.67 0.67 -0.34 0.34 0 0 Z " fill="#121212" transform="translate(775,904)"/>
<path d="M0 0 C0.33 0.99 0.66 1.98 1 3 C-0.32 4.32 -1.64 5.64 -3 7 C-3.66 6.67 -4.32 6.34 -5 6 C-5 4.35 -5 2.7 -5 1 C-4.34 1 -3.68 1 -3 1 C-3 1.66 -3 2.32 -3 3 C-2.01 2.01 -1.02 1.02 0 0 Z " fill="#121212" transform="translate(753,832)"/>
<path d="M0 0 C0.639375 0.165 1.27875 0.33 1.9375 0.5 C3.80826821 1.03926667 3.80826821 1.03926667 5 1 C5.66 1.66 6.32 2.32 7 3 C6.67 3.99 6.34 4.98 6 6 C4.02 5.01 2.04 4.02 0 3 C0 2.01 0 1.02 0 0 Z M1 5 C4 6 4 6 4 6 Z " fill="#212121" transform="translate(411,817)"/>
<path d="M0 0 C0.66666667 1.33333333 1.33333333 2.66666667 2 4 C2.556875 5.03125 3.11375 6.0625 3.6875 7.125 C4.120625 8.07375 4.55375 9.0225 5 10 C4.67 10.66 4.34 11.32 4 12 C3.13058506 10.76055724 2.27994543 9.50792941 1.4375 8.25 C0.96183594 7.55390625 0.48617187 6.8578125 -0.00390625 6.140625 C-1 4 -1 4 -0.65234375 1.734375 C-0.43707031 1.16203125 -0.22179687 0.5896875 0 0 Z " fill="#131313" transform="translate(788,796)"/>
<path d="M0 0 C1.32 0 2.64 0 4 0 C3.67 1.65 3.34 3.3 3 5 C2.01 5.33 1.02 5.66 0 6 C-0.66 5.67 -1.32 5.34 -2 5 C-1.34 3.35 -0.68 1.7 0 0 Z " fill="#141414" transform="translate(833,775)"/>
<path d="M0 0 C0.625 1.8125 0.625 1.8125 1 4 C0.01 5.485 0.01 5.485 -1 7 C-1.33 6.67 -1.66 6.34 -2 6 C-2.99 6.495 -2.99 6.495 -4 7 C-4.6875 5.1875 -4.6875 5.1875 -5 3 C-3.38441968 0.84589291 -2.74502455 0 0 0 Z " fill="#151515" transform="translate(463,900)"/>
<path d="M0 0 C0.91058531 3.07322544 1.08886184 5.80097361 1 9 C0.01 9.495 0.01 9.495 -1 10 C-1 9.34 -1 8.68 -1 8 C-1.66 7.67 -2.32 7.34 -3 7 C-2.34 7 -1.68 7 -1 7 C-1 6.01 -1 5.02 -1 4 C-1.99 4.33 -2.98 4.66 -4 5 C-2.25 1.125 -2.25 1.125 0 0 Z " fill="#1F1F1F" transform="translate(397,837)"/>
<path d="M0 0 C0.66 0.66 1.32 1.32 2 2 C1 4 1 4 -1 4.9375 C-3.34608221 5.8891846 -3.34608221 5.8891846 -4 9 C-4.99 8.34 -5.98 7.68 -7 7 C-4.69 4.69 -2.38 2.38 0 0 Z " fill="#EAEAEA" transform="translate(730,667)"/>
<path d="M0 0 C1.65 0 3.3 0 5 0 C5 1.65 5 3.3 5 5 C4.01 5.33 3.02 5.66 2 6 C1.01 5.34 0.02 4.68 -1 4 C-0.67 2.68 -0.34 1.36 0 0 Z " fill="#222222" transform="translate(418,409)"/>
<path d="M0 0 C3.34373475 0.55728913 6.03312999 1.35173889 9 3 C5.30581799 4.231394 2.7943739 3.64432764 -1 3 C-0.67 2.01 -0.34 1.02 0 0 Z " fill="#0F0F0F" transform="translate(708,298)"/>
<path d="M0 0 C0.33 0.66 0.66 1.32 1 2 C0.34 2 -0.32 2 -1 2 C-2.2236068 4.0745356 -2.2236068 4.0745356 -2 7 C-2.66 7 -3.32 7 -4 7 C-4.33 7.66 -4.66 8.32 -5 9 C-6 6 -6 6 -4.75 3.375 C-3 1 -3 1 0 0 Z " fill="#121212" transform="translate(491,905)"/>
<path d="M0 0 C5.75 1.75 5.75 1.75 8 4 C7.67 4.66 7.34 5.32 7 6 C4 5 4 5 2 3 C1.67 3.66 1.34 4.32 1 5 C0.67 3.35 0.34 1.7 0 0 Z " fill="#212121" transform="translate(400,806)"/>
<path d="M0 0 C2.31 1.98 4.62 3.96 7 6 C6.34 6.66 5.68 7.32 5 8 C4.34 6.68 3.68 5.36 3 4 C2.01 4.33 1.02 4.66 0 5 C0 3.35 0 1.7 0 0 Z " fill="#282828" transform="translate(740,769)"/>
<path d="M0 0 C0 0.66 0 1.32 0 2 C-4.0527516 2.98248524 -7.83861737 3.08159574 -12 3 C-8.48214012 -0.51785988 -4.80656342 -0.10924008 0 0 Z " fill="#0E0E0E" transform="translate(509,449)"/>
<path d="M0 0 C0.33 1.32 0.66 2.64 1 4 C0.195625 4.28875 -0.60875 4.5775 -1.4375 4.875 C-4.1326468 5.73262568 -4.1326468 5.73262568 -5 8 C-4.45773019 4.20411134 -2.79872437 2.52788007 0 0 Z " fill="#EFEFEF" transform="translate(534,936)"/>
<path d="M0 0 C0.99 0.33 1.98 0.66 3 1 C2.34 2.32 1.68 3.64 1 5 C0.01 5 -0.98 5 -2 5 C-2 4.67 -2 4.34 -2 4 C-2.99 3.67 -3.98 3.34 -5 3 C-2.6875 1.4375 -2.6875 1.4375 0 0 Z " fill="#0E0E0E" transform="translate(594,839)"/>
<path d="M0 0 C0.66 0 1.32 0 2 0 C2 0.99 2 1.98 2 3 C4.475 3.99 4.475 3.99 7 5 C6.34 5.66 5.68 6.32 5 7 C2.69 5.35 0.38 3.7 -2 2 C-1.34 1.34 -0.68 0.68 0 0 Z " fill="#121212" transform="translate(389,822)"/>
<path d="M0 0 C1.258125 -0.04125 2.51625 -0.0825 3.8125 -0.125 C4.52019531 -0.14820313 5.22789062 -0.17140625 5.95703125 -0.1953125 C8 0 8 0 11 2 C11 2.66 11 3.32 11 4 C7.37 3.01 3.74 2.02 0 1 C0 0.67 0 0.34 0 0 Z " fill="#222222" transform="translate(709,778)"/>
<path d="M0 0 C1.485 0.99 1.485 0.99 3 2 C2.67 3.65 2.34 5.3 2 7 C1.67 6.34 1.34 5.68 1 5 C0.34 5 -0.32 5 -1 5 C-0.67 3.35 -0.34 1.7 0 0 Z " fill="#141414" transform="translate(858,763)"/>
<path d="M0 0 C-2.62198774 2.15377564 -4.64404172 3.40072174 -8 4 C-8.33 3.01 -8.66 2.02 -9 1 C-6.04335481 -0.4783226 -3.25770263 -0.06032783 0 0 Z " fill="#E4E4E4" transform="translate(612,451)"/>
<path d="M0 0 C-3.51187196 2.40814077 -5.72656908 3.36629408 -10 3 C-6.81859267 -0.48439851 -4.56758339 -1.41752588 0 0 Z " fill="#0F0F0F" transform="translate(688,423)"/>
<path d="M0 0 C0 2.31 0 4.62 0 7 C-0.99 5.68 -1.98 4.36 -3 3 C-4.32 3.33 -5.64 3.66 -7 4 C-7 3.34 -7 2.68 -7 2 C-2.25 0 -2.25 0 0 0 Z " fill="#EAEAEA" transform="translate(814,401)"/>
<path d="M0 0 C0.99 0.33 1.98 0.66 3 1 C1.25 3.0625 1.25 3.0625 -1 5 C-3.25 4.75 -3.25 4.75 -5 4 C-3.36587557 2.29159719 -2.13093906 1.06546953 0 0 Z " fill="#111111" transform="translate(595,939)"/>
<path d="M0 0 C2.0625 0.4375 2.0625 0.4375 4 1 C3.34 2.98 2.68 4.96 2 7 C1.34 7 0.68 7 0 7 C-0.38133299 5.0085944 -0.71325582 3.00720923 -1 1 C-0.67 0.67 -0.34 0.34 0 0 Z " fill="#131313" transform="translate(685,920)"/>
<path d="M0 0 C0.33 0.66 0.66 1.32 1 2 C1.99 2.33 2.98 2.66 4 3 C3.360625 3.12375 2.72125 3.2475 2.0625 3.375 C1.381875 3.58125 0.70125 3.7875 0 4 C-0.33 4.66 -0.66 5.32 -1 6 C-1.66 5.01 -2.32 4.02 -3 3 C-2.01 2.01 -1.02 1.02 0 0 Z " fill="#222222" transform="translate(431,899)"/>
<path d="M0 0 C2.31 0.66 4.62 1.32 7 2 C7 2.66 7 3.32 7 4 C2.44615385 4.36923077 2.44615385 4.36923077 0.1875 2.5 C-0.4003125 1.7575 -0.4003125 1.7575 -1 1 C-0.67 0.67 -0.34 0.34 0 0 Z " fill="#0F0F0F" transform="translate(455,895)"/>
<path d="M0 0 C-1.32 0.33 -2.64 0.66 -4 1 C-4 1.99 -4 2.98 -4 4 C-4.99 4.33 -5.98 4.66 -7 5 C-7 3.02 -7 1.04 -7 -1 C-3.51418144 -2.2020064 -3.32007656 -2.21338437 0 0 Z " fill="#212121" transform="translate(735,853)"/>
<path d="M0 0 C2.52588702 2.36292656 3.88820837 3.66462511 5 7 C3.35 6.67 1.7 6.34 0 6 C0 4.02 0 2.04 0 0 Z " fill="#111111" transform="translate(797,775)"/>
<path d="M0 0 C2.99324263 1.0975223 3.84610901 1.67682892 5.25 4.625 C5.4975 5.40875 5.745 6.1925 6 7 C5.01 7 4.02 7 3 7 C0 2.77777778 0 2.77777778 0 0 Z " fill="#111111" transform="translate(773,775)"/>
<path d="M0 0 C0.66 0.33 1.32 0.66 2 1 C1.67 1.99 1.34 2.98 1 4 C-0.98 4.33 -2.96 4.66 -5 5 C-4.1875 3.0625 -4.1875 3.0625 -3 1 C-2.01 0.67 -1.02 0.34 0 0 Z " fill="#313131" transform="translate(757,420)"/>
<path d="M0 0 C3.34373475 0.55728913 6.03312999 1.35173889 9 3 C5.23375329 4.25541557 3.62811066 3.37061958 0 2 C0 1.34 0 0.68 0 0 Z " fill="#0E0E0E" transform="translate(469,404)"/>
<path d="M0 0 C1 3 1 3 0 6 C-0.99 5.67 -1.98 5.34 -3 5 C-3 3.68 -3 2.36 -3 1 C-2.01 0.67 -1.02 0.34 0 0 Z " fill="#212121" transform="translate(777,384)"/>
<path d="M0 0 C0.66 0.33 1.32 0.66 2 1 C2 1.66 2 2.32 2 3 C0.35 3 -1.3 3 -3 3 C-3 3.66 -3 4.32 -3 5 C-4.32 4.34 -5.64 3.68 -7 3 C-4.69631264 1.93347808 -2.35981813 0.93578995 0 0 Z " fill="#1B1B1B" transform="translate(319,367)"/>
<path d="M0 0 C1.65 0.33 3.3 0.66 5 1 C4.01 1.33 3.02 1.66 2 2 C2.33 3.32 2.66 4.64 3 6 C2.34 6 1.68 6 1 6 C0.67 5.34 0.34 4.68 0 4 C-0.99 4.495 -0.99 4.495 -2 5 C-1.34 3.35 -0.68 1.7 0 0 Z " fill="#1F1F1F" transform="translate(682,287)"/>
</svg>
